<?xml version="1.0" standalone="no"?>
<!DOCTYPE svg PUBLIC "-//W3C//DTD SVG 20010904//EN"
 "http://www.w3.org/TR/2001/REC-SVG-20010904/DTD/svg10.dtd">
<svg version="1.0" xmlns="http://www.w3.org/2000/svg"
 width="402.000000pt" height="402.000000pt" viewBox="0 0 402.000000 402.000000"
 preserveAspectRatio="xMidYMid meet">
<metadata>
Created by potrace 1.14, written by Peter Selinger 2001-2017
</metadata>
<g transform="translate(0.000000,402.000000) scale(0.100000,-0.100000)"
fill="#000000" stroke="none">
<path d="M13 3963 c12 -124 26 -200 47 -253 41 -104 126 -224 185 -259 l35
-20 24 37 c89 142 107 289 57 470 l-23 82 -165 0 -165 0 5 -57z"/>
<path d="M445 4009 c-12 -19 5 -23 22 -6 16 16 16 17 1 17 -9 0 -20 -5 -23
-11z"/>
<path d="M598 4013 c-19 -5 -25 -43 -7 -43 6 0 7 -5 2 -12 -4 -7 -6 -21 -5
-30 2 -13 -1 -16 -12 -12 -12 5 -15 2 -10 -10 8 -21 21 -20 33 1 5 10 13 15
16 11 9 -8 -19 -38 -34 -38 -6 0 -11 -9 -11 -20 0 -21 16 -25 58 -14 12 4 22
12 22 20 0 10 6 11 24 4 15 -5 27 -5 35 3 8 8 11 7 11 -6 0 -14 -43 -67 -55
-67 -2 0 -6 8 -8 18 -3 10 -5 6 -6 -11 -1 -17 3 -26 9 -22 6 3 10 1 10 -4 0
-6 -4 -11 -10 -11 -17 0 -50 -34 -50 -52 0 -9 -4 -20 -10 -23 -5 -3 -10 -14
-10 -25 0 -18 -29 -37 -31 -20 -1 6 -2 14 -3 19 -2 19 -16 24 -16 6 0 -10 -7
-27 -17 -37 -10 -12 -12 -18 -4 -18 7 0 9 -5 6 -10 -4 -7 -12 -7 -25 0 -22 12
-33 0 -19 -20 5 -8 9 -29 9 -47 0 -27 3 -30 23 -25 21 5 21 4 5 -15 -18 -20
-25 -63 -10 -63 4 0 14 6 21 13 10 10 12 -12 10 -111 -2 -117 -3 -122 -22
-116 -14 4 -26 -1 -38 -17 -10 -13 -19 -18 -19 -11 0 14 -50 17 -50 2 0 -5 -8
-6 -17 -3 -15 6 -16 5 -3 -9 8 -8 21 -13 29 -10 11 4 13 -1 8 -26 -4 -19 -2
-32 3 -32 20 0 9 -21 -14 -30 -13 -5 -27 -18 -31 -29 -3 -12 -11 -21 -16 -21
-6 0 -7 5 -4 10 3 6 2 10 -4 10 -13 0 -32 -35 -24 -44 3 -3 17 -6 30 -6 25 0
31 -14 10 -27 -8 -4 -17 -22 -20 -39 -5 -26 -2 -33 19 -42 20 -10 24 -9 24 4
0 8 5 12 10 9 6 -3 10 1 10 10 0 12 5 15 17 11 9 -4 20 -1 25 6 6 10 10 10 18
-2 5 -8 8 -20 6 -26 -6 -16 10 -38 23 -30 6 4 11 17 12 29 0 21 1 21 8 2 5
-11 5 -25 0 -31 -4 -5 -5 -21 -2 -35 6 -23 6 -23 -12 -6 -34 35 -68 53 -73 39
-3 -10 -7 -10 -18 -1 -11 9 -20 8 -38 -5 -14 -9 -32 -13 -40 -10 -8 3 -24 -4
-35 -15 -25 -25 -27 -35 -6 -27 18 6 20 -10 3 -20 -6 -4 -14 -2 -16 4 -2 7
-10 12 -18 12 -17 0 -19 17 -2 22 8 3 8 9 0 24 -10 17 -11 17 -12 2 0 -10 -4
-18 -10 -18 -5 0 -7 7 -4 15 4 8 3 15 0 15 -13 0 -24 -45 -14 -57 7 -8 3 -10
-11 -6 -27 7 -27 -12 -1 -34 11 -10 32 -30 47 -46 20 -20 29 -24 35 -15 5 10
8 8 8 -4 0 -16 -22 -24 -52 -19 -5 0 -8 -4 -8 -9 0 -6 -15 -10 -34 -8 -19 1
-41 -4 -50 -11 -15 -13 -15 -15 1 -26 50 -32 137 -39 155 -11 5 8 12 8 25 0
22 -14 29 -34 10 -34 -7 0 -19 -11 -25 -25 -7 -15 -8 -25 -2 -25 6 0 2 -8 -7
-19 -10 -10 -27 -30 -38 -44 -11 -14 -26 -26 -32 -27 -7 0 -13 -5 -13 -11 0
-6 7 -9 15 -5 8 3 15 1 15 -4 0 -6 7 -10 16 -10 11 0 14 6 9 20 -5 15 -3 18 9
14 9 -3 16 -1 16 6 0 6 4 9 9 6 5 -3 11 4 14 15 4 15 2 19 -8 15 -9 -3 -12 0
-8 10 3 7 11 14 18 14 7 0 18 7 25 15 10 12 9 15 -4 15 -10 0 -14 5 -11 10 11
17 35 11 35 -9 0 -10 7 -24 15 -31 19 -16 30 8 21 48 -5 24 -4 25 5 6 7 -14
18 -20 32 -17 15 3 31 -6 51 -26 28 -29 28 -31 13 -55 -10 -15 -13 -27 -7 -31
22 -14 8 -24 -27 -19 -22 2 -50 -2 -70 -11 -25 -12 -41 -14 -68 -6 -31 8 -35
7 -35 -10 0 -21 -6 -24 -62 -34 -27 -4 -36 -10 -31 -20 3 -8 13 -15 23 -15 11
0 22 -4 25 -10 3 -5 1 -10 -5 -10 -6 0 -9 -8 -6 -18 4 -11 -2 -22 -17 -31 -17
-11 -19 -11 -9 0 18 19 15 42 -4 35 -8 -3 -25 -1 -37 6 -12 7 -28 12 -36 13
-9 0 -22 26 -34 73 -20 71 -20 73 -1 87 18 14 18 14 -2 15 -12 0 -22 6 -21 13
1 35 -4 49 -17 44 -17 -7 -55 32 -61 63 -3 13 -9 28 -15 34 -7 7 -10 -414 -10
-1322 l0 -1332 1239 0 c1089 0 1240 2 1251 15 17 20 -4 45 -37 45 -16 0 -27 7
-30 20 -3 11 -9 20 -14 20 -5 0 -9 6 -9 13 0 7 -9 18 -20 25 -25 16 -25 38 0
59 23 20 26 43 8 61 -9 9 -8 12 5 12 41 0 78 91 52 127 -9 12 -8 25 7 55 10
21 16 43 12 49 -4 7 2 9 17 5 13 -3 18 -3 12 0 -20 9 -16 23 17 64 17 21 28
45 24 53 -3 8 2 22 12 31 9 9 14 19 11 22 -3 3 10 26 29 51 37 48 74 118 74
139 0 7 6 19 13 26 13 13 31 88 20 88 -2 0 -13 -10 -22 -21 -15 -18 -21 -20
-39 -10 -12 7 -26 9 -31 7 -5 -3 -12 5 -15 19 -6 24 -26 36 -26 15 0 -5 -9
-10 -20 -10 -21 0 -40 27 -40 59 0 21 -8 25 -41 22 -20 -2 -29 27 -29 96 0 67
-14 103 -40 103 -11 0 -20 -6 -21 -12 0 -7 -4 -3 -9 10 -5 12 -18 22 -28 22
-10 0 -23 5 -29 11 -18 18 -27 -10 -9 -30 19 -21 4 -41 -32 -41 -21 0 -23 4
-18 25 6 22 1 27 -57 54 -58 26 -65 32 -74 69 -9 33 -7 48 7 80 20 45 20 46
-45 87 -34 22 -57 21 -94 -3 -14 -10 -22 -12 -18 -4 10 15 2 15 -25 1 -11 -6
-18 -7 -15 -1 8 12 -69 35 -93 27 -11 -4 -20 -10 -20 -14 0 -5 -17 -3 -37 5
-50 17 -113 17 -137 -1 -30 -23 -43 -18 -50 16 -4 24 -9 29 -18 21 -7 -5 -27
-13 -45 -16 -17 -4 -37 -14 -44 -22 -40 -48 -309 -121 -309 -84 0 6 -12 10
-27 10 -47 0 -53 7 -109 119 -15 30 -33 81 -40 114 -11 55 -10 59 9 78 11 10
31 19 43 19 12 0 27 7 34 15 10 12 25 13 69 9 31 -4 61 -10 66 -15 6 -4 40 -1
75 7 36 8 90 21 120 28 34 8 49 15 40 19 -9 4 -7 5 5 2 21 -5 89 13 115 30 9
6 23 22 32 37 12 18 23 25 37 21 16 -4 22 2 30 34 6 21 11 44 11 51 0 8 9 21
20 30 15 13 21 34 25 82 3 36 8 92 11 125 7 75 -3 86 -96 104 -77 16 -270 22
-270 10 0 -5 -11 -14 -25 -19 -27 -10 -33 -25 -12 -33 6 -3 -1 -6 -16 -6 -16
-1 -35 -8 -43 -16 -9 -8 -33 -18 -53 -21 -21 -3 -49 -16 -62 -28 -13 -12 -39
-31 -57 -41 -27 -16 -36 -18 -53 -7 -11 7 -24 10 -29 7 -6 -4 -11 11 -11 34
-2 54 -3 58 -11 67 -22 21 5 116 27 96 5 -4 5 1 2 11 -4 10 -7 24 -8 30 0 7
-5 3 -10 -8 -8 -17 -8 -16 -3 5 3 14 8 43 10 65 5 49 14 58 57 59 46 2 92 32
77 51 -15 18 -4 71 16 79 8 3 14 13 12 22 -2 9 3 19 10 21 8 3 10 -1 5 -13 -5
-14 -3 -16 13 -9 10 5 41 8 68 7 27 -1 56 4 64 11 15 12 50 18 108 20 24 0 34
7 42 26 10 26 10 26 17 4 7 -23 7 -23 32 -3 20 16 28 17 44 7 10 -6 19 -17 19
-23 0 -15 56 -22 117 -14 32 4 58 1 77 -8 16 -8 50 -17 75 -19 25 -3 48 -9 51
-13 3 -4 23 -9 45 -11 22 -2 53 -11 68 -22 18 -12 32 -16 40 -10 23 18 107 16
128 -3 19 -17 20 -17 26 4 4 18 8 20 20 10 12 -10 17 -9 24 5 6 9 16 17 23 17
18 0 66 -24 66 -32 0 -5 7 -8 15 -8 18 0 21 46 3 53 -8 3 -6 6 5 6 9 1 17 7
18 14 0 6 6 -1 13 -17 15 -33 30 -20 21 17 -4 16 0 30 12 42 17 18 18 18 21
-8 4 -31 16 -34 40 -10 16 16 17 16 20 0 2 -9 12 -17 23 -17 11 0 17 -4 14
-10 -3 -5 0 -10 8 -10 16 0 76 -66 88 -97 5 -13 15 -23 24 -23 11 0 14 -6 9
-25 -4 -15 3 -44 20 -81 14 -31 26 -64 26 -73 0 -10 14 -38 30 -64 34 -54 80
-200 113 -357 27 -126 38 -150 61 -131 10 9 16 9 16 3 0 -6 7 -9 16 -5 11 4
14 16 12 42 -3 33 -1 36 21 33 14 -1 27 -4 29 -7 2 -2 22 -50 43 -107 l38
-103 -4 135 c-2 75 -8 148 -14 163 -13 33 -44 36 -64 7 -14 -21 -14 -21 -20 2
-7 26 16 68 37 68 54 0 85 -96 86 -263 l0 -107 158 4 c86 2 129 2 95 -1 l-63
-4 -2 -47 -1 -47 -4 43 -4 42 -93 0 -93 0 -11 -77 c-14 -102 -46 -201 -75
-237 -23 -29 -24 -29 -88 -20 -53 7 -66 13 -76 34 -14 28 -15 26 -38 -73 -8
-38 -15 -92 -15 -120 0 -51 1 -52 38 -67 20 -9 32 -19 26 -22 -6 -4 -23 -1
-38 7 l-27 14 3 -36 c3 -33 7 -38 36 -44 40 -8 57 -23 47 -39 -5 -9 -9 -9 -14
-1 -4 6 -20 13 -36 17 l-30 5 -1 -80 c-1 -73 0 -81 17 -81 11 0 19 -7 19 -17
0 -10 3 -29 6 -43 6 -24 5 -23 -15 5 l-21 30 0 -30 c0 -16 5 -79 10 -140 14
-143 48 -212 122 -249 13 -6 24 -20 26 -31 4 -20 90 -98 140 -125 15 -8 43
-27 63 -43 24 -18 43 -25 55 -21 16 5 16 4 4 -5 -12 -9 -9 -11 15 -12 20 0 3
-8 -54 -24 -46 -13 -124 -38 -175 -54 -50 -17 -129 -40 -176 -51 -100 -25
-173 -47 -215 -65 -16 -8 -52 -20 -80 -28 -48 -14 -41 -15 164 -16 l214 -1
106 34 c58 19 142 48 186 64 112 41 145 48 145 28 0 -10 6 -13 15 -10 8 4 15
1 15 -5 0 -6 -12 -12 -27 -12 -17 -1 -21 -3 -11 -6 10 -2 21 -17 24 -31 15
-63 9 -62 326 -62 l288 0 -1 198 c0 108 -4 188 -8 177 -6 -16 -9 -14 -15 15
-5 26 -2 38 8 46 23 16 23 699 0 708 -8 3 -13 2 -10 -3 9 -14 -19 -21 -50 -12
-39 10 -41 29 -5 44 l31 13 -25 14 c-25 14 -33 30 -15 30 6 0 29 -9 50 -19
l40 -19 0 361 0 362 -50 0 -50 0 -1 -35 c-1 -28 -2 -31 -7 -12 -4 12 -6 49 -4
81 3 54 5 58 25 53 20 -5 20 -6 2 -12 -18 -6 -17 -9 10 -22 17 -9 40 -19 53
-22 19 -7 22 -4 22 22 0 27 -4 30 -54 41 -65 14 -66 18 -65 151 1 52 3 88 6
79 2 -9 17 -19 32 -22 16 -3 40 -9 55 -13 21 -5 26 -3 26 12 0 16 -2 17 -10 4
-8 -13 -14 -8 -12 11 2 11 -112 39 -164 41 -36 1 -40 2 -17 5 25 3 34 10 39
29 6 23 32 33 47 17 6 -5 105 -43 114 -43 2 0 3 13 3 28 0 26 -4 29 -70 46
-45 11 -68 22 -63 29 4 6 0 8 -9 5 -24 -10 -367 -32 -375 -25 -3 4 -2 52 3
108 9 94 8 102 -9 114 -11 8 -26 11 -34 8 -13 -5 -13 -7 1 -15 13 -7 16 -26
15 -96 -1 -136 -22 -164 -35 -46 -4 39 -2 54 4 45 6 -8 12 -9 16 -3 10 16 -5
44 -20 38 -8 -3 -14 1 -14 9 0 8 -4 15 -10 15 -5 0 -8 15 -6 33 2 17 -1 35 -8
40 -8 5 -7 10 4 16 9 6 17 6 20 0 7 -10 71 -31 77 -25 2 2 3 95 3 207 1 218 6
282 24 276 33 -11 40 60 9 91 -17 17 -17 43 0 37 19 -7 33 7 40 43 5 24 3 32
-8 32 -8 0 -15 7 -15 15 0 17 -16 20 -25 5 -4 -6 -11 -8 -16 -5 -11 7 -12 59
-1 69 4 4 8 12 8 17 1 5 2 14 3 19 0 6 12 8 26 4 20 -5 24 -3 19 9 -3 10 2 18
15 22 12 3 21 11 21 16 0 15 -37 10 -44 -6 -8 -21 -33 -19 -39 4 -6 24 0 31
25 31 10 0 18 5 18 10 0 6 18 10 39 10 22 0 43 5 46 10 7 12 45 14 45 2 0 -4
-5 -13 -12 -20 -9 -9 -6 -12 15 -12 31 0 37 -23 10 -40 -16 -10 -16 -11 2 -4
11 3 30 9 43 11 12 3 22 11 22 18 0 14 25 27 34 18 14 -14 4 -34 -19 -43 -14
-5 -25 -16 -25 -25 0 -8 -5 -15 -11 -15 -6 0 -8 7 -5 16 5 12 1 14 -17 8 -12
-4 -27 -7 -34 -7 -10 0 -23 -18 -27 -37 -3 -13 -18 -30 -27 -30 -6 0 -7 5 -4
10 3 6 1 10 -4 10 -6 0 -11 -4 -11 -9 0 -5 -14 -11 -30 -14 -34 -7 -42 -37
-10 -37 11 0 20 5 20 12 0 6 2 9 5 6 3 -3 -1 -23 -9 -46 -9 -25 -11 -44 -5
-47 5 -4 5 -15 -2 -28 -12 -21 -11 -21 8 -4 25 22 40 22 22 0 -13 -15 -12 -16
9 -11 39 11 24 -10 -25 -33 l-48 -22 32 -10 c25 -7 33 -16 38 -43 5 -30 8 -33
25 -24 11 6 20 17 20 25 0 14 53 31 69 21 5 -3 11 3 14 14 5 20 27 28 27 10 0
-5 6 -10 13 -10 6 1 2 9 -11 20 -23 19 -23 19 -2 30 16 9 20 8 20 -5 0 -18 23
-20 52 -4 30 16 67 3 74 -26 6 -24 44 -37 44 -15 0 6 -7 10 -16 10 -14 0 -14
3 -3 16 8 10 21 13 36 9 23 -5 23 -4 23 69 0 50 -4 76 -12 80 -10 5 -10 7 0
12 19 9 17 181 -3 201 -24 23 -31 7 -9 -19 16 -18 17 -21 2 -15 -9 3 -19 1
-22 -6 -3 -7 -3 -1 0 12 5 19 3 23 -10 18 -12 -5 -16 -2 -14 11 2 11 -2 16
-12 13 -28 -7 -90 -9 -90 -2 1 18 18 31 35 25 13 -5 16 -3 13 7 -5 15 -18 16
-65 5 l-28 -6 23 16 c12 9 22 26 22 37 0 21 0 21 -16 -1 -9 -13 -22 -21 -29
-18 -7 2 -27 -8 -44 -25 -17 -16 -34 -29 -38 -30 -5 0 -21 -2 -38 -4 -16 -2
-25 -1 -19 3 6 4 14 19 17 34 6 23 4 25 -13 21 -23 -6 -25 0 -10 28 6 10 20
19 32 19 17 0 18 3 8 15 -10 12 -9 16 4 21 9 3 16 12 16 19 0 7 7 15 15 19 8
3 15 15 15 26 0 11 5 20 10 20 16 0 12 -15 -16 -55 -18 -27 -22 -40 -13 -45 6
-4 9 -13 5 -19 -5 -7 -1 -9 8 -5 9 3 16 2 16 -4 0 -5 -7 -13 -16 -16 -9 -4
-14 -9 -11 -12 3 -3 14 0 25 7 18 12 19 14 5 36 -20 30 -11 51 23 55 15 2 30
9 32 17 3 8 0 11 -7 7 -6 -4 -11 -1 -11 8 0 19 7 20 24 3 7 -7 11 -19 9 -27
-4 -13 -3 -13 6 0 6 8 11 22 11 30 0 21 33 40 50 30 11 -7 11 -11 1 -24 -8 -9
-9 -16 -3 -16 15 0 35 28 27 40 -3 5 -1 10 4 10 6 0 11 -3 11 -8 0 -4 12 -20
28 -36 15 -17 32 -44 39 -60 9 -26 12 1 12 152 l1 182 -439 0 c-342 0 -440 -3
-444 -12 -4 -10 -7 -10 -18 0 -8 7 -41 12 -82 12 -54 0 -74 -4 -94 -20 -30
-23 -62 -28 -44 -7 6 8 8 17 4 20 -12 12 -21 7 -27 -15 -5 -19 -8 -20 -15 -8
-5 8 -7 18 -5 22 3 4 1 8 -5 8 -5 0 -12 -6 -15 -12 -5 -10 -7 -10 -12 0 -4 9
-82 12 -339 12 -324 0 -333 -1 -338 -20 -3 -11 -13 -20 -22 -20 -9 0 -13 5
-10 10 4 6 -7 10 -24 10 -17 0 -31 5 -31 10 0 7 -190 10 -561 10 l-561 -1 6
-25 c6 -23 4 -24 -21 -21 -21 3 -28 9 -27 26 1 21 -2 21 -140 20 -78 -1 -149
-3 -158 -6z m265 -15 c5 -15 -13 -50 -30 -61 -7 -4 -13 -17 -13 -27 0 -11 -5
-20 -11 -20 -7 0 -9 10 -5 24 7 28 -2 58 -15 50 -5 -3 -6 2 -3 10 8 22 34 20
35 -1 1 -18 2 -16 14 25 3 6 9 12 14 12 5 0 11 -6 14 -12z m2311 -1 c-12 -32
-64 -44 -64 -14 0 8 3 7 9 -2 7 -11 12 -10 22 8 15 22 42 30 33 8z m-2104 -7
c0 -5 -4 -10 -10 -10 -5 0 -10 5 -10 10 0 6 5 10 10 10 6 0 10 -4 10 -10z
m1904 -17 c-9 -38 -23 -51 -34 -34 -5 9 -3 23 7 38 21 31 35 29 27 -4z m963 7
c-2 -24 -21 -21 -25 3 -2 10 3 17 12 17 9 0 14 -8 13 -20z m-3174 -25 c-3 -9
-8 -14 -10 -11 -3 3 -2 9 2 15 9 16 15 13 8 -4z m347 -11 c0 -14 -4 -23 -10
-19 -5 3 -10 15 -10 26 0 10 5 19 10 19 6 0 10 -12 10 -26z m1030 16 c0 -5 -4
-10 -10 -10 -5 0 -10 5 -10 10 0 6 5 10 10 10 6 0 10 -4 10 -10z m751 -33
c-17 -17 -24 -1 -10 25 12 21 14 21 17 4 2 -10 -1 -23 -7 -29z m959 33 c0 -5
-5 -10 -11 -10 -5 0 -7 5 -4 10 3 6 8 10 11 10 2 0 4 -4 4 -10z m-3140 -24 c0
-9 -8 -12 -25 -8 -28 5 -24 22 6 22 10 0 19 -6 19 -14z m370 5 c0 -12 -20 -25
-27 -18 -7 7 6 27 18 27 5 0 9 -4 9 -9z m2030 -1 c0 -5 -11 -10 -25 -10 -14 0
-25 5 -25 10 0 6 11 10 25 10 14 0 25 -4 25 -10z m820 0 c0 -5 -4 -10 -10 -10
-5 0 -10 5 -10 10 0 6 5 10 10 10 6 0 10 -4 10 -10z m-2890 -10 c0 -5 -7 -10
-15 -10 -8 0 -15 5 -15 10 0 6 7 10 15 10 8 0 15 -4 15 -10z m-190 -9 c0 -6
-4 -13 -10 -16 -5 -3 -10 1 -10 9 0 9 5 16 10 16 6 0 10 -4 10 -9z m30 -1 c0
-5 -5 -10 -11 -10 -5 0 -7 5 -4 10 3 6 8 10 11 10 2 0 4 -4 4 -10z m260 -10
c0 -5 -2 -10 -4 -10 -3 0 -8 5 -11 10 -3 6 -1 10 4 10 6 0 11 -4 11 -10z
m1720 6 c0 -3 -4 -8 -10 -11 -5 -3 -10 -1 -10 4 0 6 5 11 10 11 6 0 10 -2 10
-4z m161 -29 c12 -3 19 0 19 9 0 8 5 14 11 14 6 0 8 -7 5 -16 -3 -9 -6 -22 -6
-30 0 -25 -48 -16 -66 12 -15 22 -15 27 -3 35 9 6 15 4 17 -5 2 -8 12 -16 23
-19z m149 16 c-1 -17 -28 -74 -30 -63 -6 28 -8 65 -4 72 9 15 34 8 34 -9z
m-2420 -3 c0 -5 -5 -10 -11 -10 -5 0 -7 5 -4 10 3 6 8 10 11 10 2 0 4 -4 4
-10z m2210 -5 c0 -8 -4 -15 -10 -15 -5 0 -10 7 -10 15 0 8 5 15 10 15 6 0 10
-7 10 -15z m-2170 -5 c0 -5 -4 -10 -10 -10 -5 0 -10 5 -10 10 0 6 5 10 10 10
6 0 10 -4 10 -10z m120 4 c0 -3 -5 -14 -10 -25 -9 -15 -13 -17 -24 -7 -8 7
-12 17 -9 22 3 4 9 2 14 -5 7 -11 9 -10 9 4 0 9 5 17 10 17 6 0 10 -3 10 -6z
m-60 -14 c0 -5 -4 -10 -10 -10 -5 0 -10 5 -10 10 0 6 5 10 10 10 6 0 10 -4 10
-10z m2710 -29 c0 -11 -31 -24 -39 -16 -3 3 1 10 9 15 19 12 30 12 30 1z
m-445 -11 c3 -5 1 -10 -4 -10 -6 0 -11 5 -11 10 0 6 2 10 4 10 3 0 8 -4 11
-10z m-2095 -25 c-18 -19 -26 -22 -32 -13 -12 20 -9 31 7 25 8 -4 17 -2 20 3
4 6 11 10 17 10 6 0 1 -11 -12 -25z m132 -21 c-26 -18 -38 -58 -15 -49 38 14
46 -64 9 -88 l-23 -16 -7 54 c-3 29 -4 59 -2 67 2 7 7 25 10 40 4 19 11 26 21
22 9 -4 15 0 16 7 1 8 3 6 6 -4 3 -11 -3 -24 -15 -33z m2634 10 c-4 -9 -9 -15
-11 -12 -3 3 -3 13 1 22 4 9 9 15 11 12 3 -3 3 -13 -1 -22z m-2966 -6 c0 -11
-6 -26 -14 -33 -12 -12 -15 -12 -20 1 -3 8 -10 13 -14 10 -6 -4 -9 31 -3 40 1
1 12 2 26 2 18 0 25 -6 25 -20z m2020 12 c0 -5 -4 -10 -10 -10 -5 0 -10 5 -10
10 0 6 5 10 10 10 6 0 10 -4 10 -10z m270 0 c0 -5 -7 -7 -15 -4 -8 4 -15 8
-15 10 0 2 7 4 15 4 8 0 15 -4 15 -10z m720 0 c0 -5 -4 -10 -10 -10 -5 0 -10
5 -10 10 0 6 5 10 10 10 6 0 10 -4 10 -10z m34 -6 c3 -8 2 -12 -4 -9 -6 3 -10
10 -10 16 0 14 7 11 14 -7z m-2902 -16 c-6 -6 -15 -8 -19 -4 -4 4 -1 11 7 16
19 12 27 3 12 -12z m121 -1 c13 -5 17 -19 19 -57 1 -27 2 -58 2 -67 1 -13 -5
-17 -19 -15 -11 2 -34 4 -52 5 -29 1 -32 3 -26 27 3 14 10 30 14 36 5 6 2 20
-7 33 -18 25 -11 56 11 47 8 -3 17 0 21 6 4 6 9 6 13 1 3 -5 14 -12 24 -16z
m-200 -31 c-4 -17 -11 -24 -24 -23 -21 1 -23 32 -2 32 6 0 15 3 19 8 11 11 12
9 7 -17z m114 -28 c-22 -14 -47 -8 -47 10 0 33 21 43 40 19 13 -16 15 -24 7
-29z m2016 31 c-6 -6 -17 -8 -24 -3 -9 5 -8 9 7 14 23 9 31 3 17 -11z m-63 -9
c0 -5 -4 -10 -10 -10 -5 0 -10 5 -10 10 0 6 5 10 10 10 6 0 10 -4 10 -10z
m177 -12 c-3 -8 -6 -5 -6 6 -1 11 2 17 5 13 3 -3 4 -12 1 -19z m289 -5 c-2
-16 -7 -36 -11 -45 -4 -11 -3 -18 4 -18 6 0 11 -9 11 -20 0 -11 4 -20 9 -20 5
0 7 8 5 18 -7 28 11 77 29 80 14 3 17 -5 14 -52 -1 -31 2 -57 7 -59 13 -4 -12
-47 -28 -47 -8 0 -17 -12 -21 -27 -9 -37 -44 -71 -55 -53 -4 7 -16 11 -27 8
-12 -3 -25 4 -36 19 -16 20 -16 24 -3 29 9 3 16 12 16 20 0 8 9 14 21 14 11 0
18 4 14 9 -3 6 -25 9 -50 7 -30 -2 -46 2 -50 11 -2 8 0 11 5 8 13 -8 13 1 -2
24 -9 15 -7 23 18 45 27 25 110 75 126 76 4 0 6 -12 4 -27z m39 17 c3 -5 1
-10 -4 -10 -6 0 -11 5 -11 10 0 6 2 10 4 10 3 0 8 -4 11 -10z m-2253 -42 c-8
-8 -9 -4 -5 13 4 13 8 18 11 10 2 -7 -1 -18 -6 -23z m1588 7 c0 -8 -4 -15 -10
-15 -5 0 -7 7 -4 15 4 8 8 15 10 15 2 0 4 -7 4 -15z m-2119 -72 c8 -22 12 -24
19 -13 6 8 10 11 10 6 0 -5 7 -3 15 4 13 11 15 7 15 -23 0 -42 -16 -58 -48
-46 -18 7 -22 14 -17 30 5 14 4 19 -4 15 -7 -4 -9 -1 -5 7 3 8 0 18 -5 22 -6
3 -9 11 -6 16 10 15 15 11 26 -18z m2516 21 c-3 -3 -12 -4 -19 -1 -8 3 -5 6 6
6 11 1 17 -2 13 -5z m-2554 -34 c3 -11 2 -22 -3 -25 -4 -3 -10 6 -12 20 -6 30
7 34 15 5z m2617 -30 c0 -5 -5 -10 -11 -10 -5 0 -7 5 -4 10 3 6 8 10 11 10 2
0 4 -4 4 -10z m-2613 -27 c-15 -16 -17 -16 -17 -1 0 9 6 18 13 21 20 7 22 -2
4 -20z m2563 19 c0 -13 -12 -22 -22 -16 -10 6 -1 24 13 24 5 0 9 -4 9 -8z
m-2122 -11 c11 -6 11 -13 1 -35 l-13 -27 -13 26 c-19 36 -5 56 25 36z m2056
-26 c-4 -8 -8 -15 -10 -15 -2 0 -4 7 -4 15 0 8 4 15 10 15 5 0 7 -7 4 -15z
m516 11 c0 -3 -4 -8 -10 -11 -5 -3 -10 -1 -10 4 0 6 5 11 10 11 6 0 10 -2 10
-4z m-3082 -26 c-7 -10 -14 -18 -15 -16 -6 6 9 36 18 36 5 0 4 -9 -3 -20z
m592 10 c0 -5 -4 -10 -10 -10 -5 0 -10 5 -10 10 0 6 5 10 10 10 6 0 10 -4 10
-10z m-390 -15 c7 -8 8 -15 2 -15 -5 0 -15 7 -22 15 -7 8 -8 15 -2 15 5 0 15
-7 22 -15z m2260 -16 c0 -10 -7 -19 -15 -19 -15 0 -21 31 -9 43 11 10 24 -3
24 -24z m60 11 c0 -5 -2 -10 -4 -10 -3 0 -8 5 -11 10 -3 6 -1 10 4 10 6 0 11
-4 11 -10z m-185 -10 c3 -5 1 -10 -4 -10 -6 0 -11 5 -11 10 0 6 2 10 4 10 3 0
8 -4 11 -10z m319 -5 c-4 -8 -10 -15 -15 -15 -4 0 -6 7 -3 15 4 8 10 15 15 15
4 0 6 -7 3 -15z m-344 -26 c0 -5 -4 -9 -10 -9 -5 0 -10 7 -10 16 0 8 5 12 10
9 6 -3 10 -10 10 -16z m-2083 -6 c-8 -7 13 -27 36 -36 22 -8 13 -27 -13 -27
-45 0 -82 64 -39 67 12 1 19 -1 16 -4z m2153 -3 c0 -5 -5 -10 -11 -10 -5 0 -7
5 -4 10 3 6 8 10 11 10 2 0 4 -4 4 -10z m320 5 c0 -2 -9 -9 -20 -15 -16 -9
-20 -8 -20 5 0 8 9 15 20 15 11 0 20 -2 20 -5z m210 -7 c0 -21 -18 -43 -27
-34 -4 5 -3 11 4 13 7 2 9 11 6 19 -3 8 0 14 6 14 6 0 11 -6 11 -12z m-2535
-21 c12 -25 5 -68 -10 -68 -5 0 -14 13 -19 30 -5 17 -14 31 -20 31 -6 0 -2 7
8 15 26 20 29 19 41 -8z m2125 8 c0 -15 -43 -12 -48 3 -3 10 4 13 22 10 15 -2
26 -7 26 -13z m304 9 c21 -8 20 -31 -1 -43 -20 -11 -17 -16 15 -26 22 -6 23
-5 17 16 -7 22 -6 23 10 9 10 -8 29 -13 43 -11 18 2 23 -1 19 -12 -3 -8 -1
-19 5 -25 6 -6 8 -28 4 -57 -7 -41 -10 -45 -28 -39 -11 3 -23 2 -27 -2 -24
-34 -109 -49 -97 -18 3 8 1 14 -3 14 -5 0 -12 -7 -15 -16 -3 -9 -13 -14 -21
-10 -8 3 -17 0 -21 -6 -5 -7 -2 -8 6 -3 10 6 12 0 8 -24 -4 -26 -1 -34 16 -41
12 -5 19 -9 16 -10 -55 -15 -79 -2 -62 34 8 17 8 26 1 26 -6 0 -8 4 -4 10 10
16 -6 59 -19 54 -9 -4 -16 16 -23 68 -6 40 -9 75 -7 77 2 2 12 -6 23 -17 10
-12 26 -22 35 -22 9 0 16 -4 16 -10 0 -5 9 -10 20 -10 14 0 20 7 20 24 0 13 7
29 15 36 8 7 15 19 15 26 0 16 2 16 24 8z m506 -14 c-7 -12 -21 -20 -37 -20
-25 0 -26 0 -8 20 10 11 27 20 37 20 16 0 17 -3 8 -20z m95 0 c3 -5 -1 -10
-10 -10 -9 0 -13 5 -10 10 3 6 8 10 10 10 2 0 7 -4 10 -10z m-3385 -20 c0 -5
-4 -10 -10 -10 -5 0 -10 5 -10 10 0 6 5 10 10 10 6 0 10 -4 10 -10z m297 -21
c4 -22 8 -27 14 -17 7 10 9 9 9 -5 0 -10 -7 -20 -15 -23 -8 -4 -15 -15 -15
-26 0 -17 -2 -18 -15 -4 -20 19 -20 57 -1 50 10 -4 14 1 13 15 -1 12 -5 21 -9
21 -4 0 -8 5 -8 10 0 24 21 7 27 -21z m2245 -9 c13 -22 26 -40 30 -40 16 0 18
23 4 45 -19 28 -20 35 -6 35 6 0 10 -7 10 -15 0 -8 6 -15 13 -15 7 0 13 -8 13
-17 1 -10 4 -47 9 -83 7 -65 7 -76 4 -126 -1 -15 4 -29 10 -33 6 -4 13 -23 14
-42 1 -19 6 -37 11 -40 4 -4 3 -15 -3 -25 -10 -18 -10 -18 -11 -1 0 10 -4 15
-10 12 -5 -3 -10 -2 -10 4 0 6 -7 8 -15 4 -9 -3 -22 2 -30 13 -13 18 -14 18
-33 1 -15 -13 -22 -15 -27 -7 -4 7 -3 15 3 19 13 8 4 22 -25 39 -14 7 -23 8
-23 2 0 -5 -16 -10 -35 -10 -39 0 -44 13 -17 43 16 19 16 20 -5 8 -13 -6 -23
-19 -23 -29 -1 -26 -39 27 -40 54 0 28 -10 36 -27 23 -8 -8 -13 -8 -13 -1 0 6
-3 17 -6 25 -3 9 3 16 16 20 17 4 24 -3 42 -43 23 -53 53 -61 38 -10 -8 29 3
50 27 50 7 0 13 6 13 14 0 8 10 14 23 15 67 4 85 7 80 14 -3 4 1 16 8 25 11
14 11 15 -1 5 -32 -29 -45 -16 -48 47 -1 34 2 60 8 60 5 0 20 -18 32 -40z
m-122 15 c-7 -9 -15 -13 -17 -11 -7 7 7 26 19 26 6 0 6 -6 -2 -15z m20 -15 c0
-5 -4 -10 -10 -10 -5 0 -10 5 -10 10 0 6 5 10 10 10 6 0 10 -4 10 -10z m920
-10 c0 -5 7 -10 15 -10 8 0 15 -4 15 -10 0 -5 7 -7 15 -4 11 5 13 2 9 -10 -3
-9 -10 -13 -15 -10 -5 3 -6 -2 -3 -10 4 -9 -5 -20 -24 -30 -16 -8 -32 -13 -34
-10 -3 2 -11 -2 -18 -11 -7 -8 -20 -15 -29 -14 -10 0 -11 2 -3 6 6 2 12 10 12
16 0 7 10 18 21 26 13 8 18 16 11 20 -14 9 -3 61 14 61 8 0 14 -4 14 -10z
m-3275 -30 c3 -5 1 -10 -4 -10 -6 0 -11 5 -11 10 0 6 2 10 4 10 3 0 8 -4 11
-10z m2242 -15 c-4 -8 -11 -15 -17 -15 -6 0 -6 7 2 20 14 22 24 19 15 -5z
m883 2 c-22 -17 -14 -46 11 -40 26 7 24 -3 -7 -34 -24 -24 -26 -24 -20 -5 6
17 2 23 -18 28 -28 7 -35 24 -10 24 9 0 14 6 12 12 -3 7 5 18 16 24 26 13 37
7 16 -9z m-89 -47 c6 0 7 -5 3 -11 -8 -14 -24 8 -23 31 1 11 3 10 6 -2 2 -10
9 -18 14 -18z m-51 10 c0 -5 -4 -10 -10 -10 -5 0 -10 5 -10 10 0 6 5 10 10 10
6 0 10 -4 10 -10z m-3075 -22 c-11 -36 -25 -45 -25 -17 0 27 7 39 22 39 5 0 6
-10 3 -22z m20 -76 l-6 -26 -13 25 c-9 17 -9 29 -2 41 9 16 11 16 19 2 5 -8 6
-27 2 -42z m44 -18 c-14 -13 -17 -13 -30 2 -12 16 -12 17 3 11 10 -3 20 -2 24
4 3 6 9 8 12 4 3 -3 -1 -12 -9 -21z m3321 -7 c0 -5 -4 -5 -10 -2 -5 3 -10 14
-10 23 0 15 2 15 10 2 5 -8 10 -19 10 -23z m-110 13 c0 -5 -10 -10 -22 -9 -22
0 -22 1 -3 9 11 5 21 9 23 9 1 1 2 -3 2 -9z m-155 -10 c-8 -13 1 -13 27 1 11
6 22 8 25 6 3 -3 -10 -13 -29 -23 -18 -9 -36 -21 -39 -27 -4 -6 -13 -5 -25 2
-18 10 -18 10 2 11 13 0 24 8 27 20 3 11 8 20 12 20 3 0 3 -4 0 -10z m-2911
-46 c2 -10 9 -18 16 -16 8 2 10 -3 5 -15 -4 -10 -9 -29 -11 -43 -4 -24 -4 -25
5 -2 6 12 13 22 15 22 9 0 -6 -34 -24 -55 -20 -24 -40 -90 -40 -131 l0 -29
-65 1 c-36 0 -68 4 -72 8 -3 3 -16 6 -29 6 -12 0 -24 6 -27 13 -7 19 4 77 15
77 6 0 8 -7 4 -15 -4 -11 2 -15 22 -16 26 -1 26 -1 3 -8 -22 -6 -23 -7 -6 -21
15 -13 19 -12 31 5 26 38 34 44 50 38 10 -4 17 1 20 15 4 13 12 18 25 15 31
-8 22 16 -21 56 -22 20 -40 40 -40 43 0 4 12 5 27 4 27 -3 58 14 43 24 -5 3
-2 21 6 39 13 31 16 33 30 19 8 -8 17 -24 18 -34z m-329 6 c-3 -5 -11 -10 -16
-10 -6 0 -7 5 -4 10 3 6 11 10 16 10 6 0 7 -4 4 -10z m2899 -9 c20 -8 16 -12
-17 -24 -11 -4 -16 -3 -12 3 3 6 1 10 -5 10 -6 0 -13 -8 -16 -17 -17 -55 -25
-67 -35 -52 -13 21 -11 39 6 39 8 0 14 3 13 8 -4 10 25 41 37 41 6 0 19 -4 29
-8z m-2784 -21 c0 -5 -4 -10 -10 -10 -5 0 -10 5 -10 10 0 6 5 10 10 10 6 0 10
-4 10 -10z m2950 -9 c0 -6 -4 -13 -10 -16 -5 -3 -10 1 -10 9 0 9 5 16 10 16 6
0 10 -4 10 -9z m-90 -33 c0 -5 7 -8 15 -8 8 0 15 7 15 15 0 19 16 19 24 0 6
-17 -19 -45 -40 -45 -8 0 -14 -5 -14 -11 0 -6 7 -8 16 -5 24 9 47 -20 40 -52
-4 -15 -7 -100 -6 -189 0 -99 -4 -164 -10 -168 -5 -3 -10 -2 -10 3 0 10 -37
25 -56 23 -7 -1 -14 11 -17 26 -3 16 -11 50 -17 77 -10 39 -9 53 1 74 11 20
11 26 2 29 -7 3 -13 13 -13 24 0 10 -4 19 -9 19 -11 0 -61 115 -61 141 0 10 6
19 14 19 8 0 18 9 21 20 6 19 22 25 53 21 6 -1 12 3 12 9 0 6 7 6 20 -2 11 -7
20 -16 20 -20z m-364 -37 c-18 -20 -21 -41 -5 -41 5 0 7 -6 3 -12 -5 -7 -9
-21 -9 -30 -1 -14 3 -17 18 -12 16 5 19 3 13 -11 -4 -13 -2 -16 9 -11 27 10
63 -13 57 -37 -5 -20 -5 -20 -14 2 -6 17 -14 22 -35 19 -34 -4 -42 -25 -11
-30 15 -2 24 -11 26 -27 5 -34 -13 -48 -36 -28 -10 9 -22 17 -25 17 -17 0 -48
44 -59 85 -11 43 -11 45 15 68 27 22 27 37 1 37 -7 0 -15 -8 -17 -17 -4 -17
-5 -17 -6 0 -1 12 10 22 29 28 20 7 30 18 30 31 0 18 1 18 16 3 15 -15 15 -17
0 -34z m80 -48 c-2 -3 -11 1 -19 8 -11 11 -11 16 2 31 15 18 16 18 19 -7 2
-15 1 -29 -2 -32z m-49 12 c-1 -37 -13 -47 -19 -17 -3 13 11 52 18 52 1 0 2
-16 1 -35z m181 -19 c2 -9 10 -29 17 -43 12 -23 12 -28 -3 -39 -22 -17 -29
-17 -29 1 0 8 4 12 9 9 4 -3 8 6 8 21 0 17 -8 29 -25 37 -14 6 -25 17 -25 25
0 19 44 10 48 -11z m-36 -62 c-8 -6 -12 -16 -9 -21 4 -6 0 -16 -8 -23 -13 -11
-15 -8 -15 14 0 14 5 26 10 26 6 0 10 9 10 20 0 17 2 19 14 8 11 -11 11 -14
-2 -24z m-47 -14 c-11 -34 4 -62 28 -55 21 5 21 5 0 -6 -13 -7 -23 -16 -23
-21 0 -15 27 -8 45 12 22 24 41 26 49 4 4 -10 13 -13 26 -9 15 5 18 3 14 -8
-3 -8 -1 -18 5 -22 6 -3 11 -21 11 -38 0 -18 4 -47 9 -65 14 -47 -10 -53 -59
-13 -21 17 -42 27 -45 21 -3 -5 3 -15 15 -22 11 -7 20 -19 20 -26 0 -7 6 -12
13 -11 26 3 36 -2 31 -16 -4 -8 -1 -15 5 -15 6 0 11 5 11 11 0 5 5 7 10 4 6
-3 10 -19 10 -36 0 -16 5 -29 11 -29 8 0 7 -5 -2 -16 -10 -13 -10 -17 1 -24
16 -10 38 -111 32 -150 l-4 -27 -120 -7 c-162 -8 -240 -7 -257 3 -9 6 -15 36
-18 90 -3 70 -2 80 11 75 9 -3 16 -10 16 -15 0 -5 7 -9 15 -9 8 0 15 5 15 11
0 5 -4 7 -10 4 -5 -3 -10 3 -10 14 0 15 -6 21 -24 21 -20 0 -24 5 -23 28 1 15
7 33 14 40 7 7 9 20 6 29 -4 11 -3 14 5 9 8 -5 12 1 12 18 0 14 5 26 11 26 5
0 7 -4 4 -10 -3 -5 1 -10 9 -10 18 0 21 -21 5 -37 -8 -8 -8 -13 0 -17 6 -4 16
5 22 21 10 27 11 28 26 8 15 -20 15 -19 10 4 -4 14 0 30 9 39 14 13 17 13 31
-1 12 -12 21 -13 39 -5 26 12 28 16 15 37 -7 11 -10 9 -16 -8 -5 -17 -10 -19
-26 -11 -10 6 -19 17 -19 25 0 8 -6 14 -12 13 -8 -2 -12 6 -10 21 1 13 -3 30
-9 37 -8 9 -5 15 11 24 11 6 26 8 33 4 6 -4 4 2 -5 12 -16 18 -16 23 -3 40 8
10 15 27 15 37 0 9 5 17 11 17 6 0 8 -9 4 -20z m-2605 -91 c13 -9 13 -10 -2
-6 -9 3 -19 1 -22 -6 -2 -7 -5 -4 -5 6 -1 20 7 21 29 6z m-240 -25 c0 -17 -22
-14 -28 4 -2 7 3 12 12 12 9 0 16 -7 16 -16z m2710 6 c0 -5 -2 -10 -4 -10 -3
0 -8 5 -11 10 -3 6 -1 10 4 10 6 0 11 -4 11 -10z m-2363 -37 c-3 -10 -5 -4 -5
12 0 17 2 24 5 18 2 -7 2 -21 0 -30z m-277 6 c0 -5 6 -7 13 -4 6 4 1 -3 -13
-14 -20 -16 -21 -21 -8 -21 9 0 20 5 24 11 4 8 9 7 15 -2 12 -20 11 -31 -2
-23 -6 3 -15 0 -20 -7 -8 -12 -11 -12 -19 1 -6 10 -12 12 -20 4 -7 -7 -5 -17
8 -32 22 -25 52 -29 52 -7 0 29 22 53 44 47 17 -4 19 -2 9 9 -7 7 -13 20 -13
29 0 13 1 13 10 0 7 -11 10 -11 10 -2 0 7 4 11 9 7 14 -8 10 -48 -8 -68 -9
-11 -16 -26 -16 -35 0 -14 -9 -16 -45 -14 -25 2 -49 7 -54 12 -4 4 -15 6 -22
3 -8 -3 -14 1 -14 10 0 8 -7 20 -15 27 -17 14 -20 30 -5 30 11 0 29 13 53 37
15 15 27 16 27 2z m2657 -15 c-3 -3 -12 -4 -19 -1 -8 3 -5 6 6 6 11 1 17 -2
13 -5z m-407 -36 c0 -5 -7 -3 -15 6 -8 8 -15 18 -15 22 0 3 7 1 15 -6 8 -7 15
-17 15 -22z m-2080 12 c0 -5 -5 -10 -11 -10 -5 0 -7 5 -4 10 3 6 8 10 11 10 2
0 4 -4 4 -10z m2515 -19 c-7 -23 -35 -17 -34 8 0 10 2 11 6 4 7 -19 23 -16 23
4 0 9 3 14 6 10 3 -3 3 -15 -1 -26z m-2697 -81 c3 -7 0 -10 -6 -6 -6 3 -15 -2
-21 -11 -10 -17 -10 -16 -11 3 0 35 28 45 38 14z m539 -52 c-3 -7 -5 -2 -5 12
0 14 2 19 5 13 2 -7 2 -19 0 -25z m-217 -49 c0 -12 -7 -19 -20 -19 -11 0 -20
6 -20 13 0 8 -3 8 -8 1 -7 -10 -42 -27 -42 -20 0 3 10 15 22 28 25 29 68 27
68 -3z m-80 11 c0 -5 -5 -10 -11 -10 -5 0 -7 5 -4 10 3 6 8 10 11 10 2 0 4 -4
4 -10z m43 -56 c-3 -8 1 -14 11 -14 9 0 16 -7 16 -15 0 -8 -4 -15 -10 -15 -5
0 -10 -7 -10 -15 0 -8 -5 -15 -11 -15 -5 0 -7 5 -4 10 3 6 -3 10 -15 10 -25 0
-35 22 -22 47 12 22 54 29 45 7z m-103 -24 c0 -5 -5 -10 -11 -10 -5 0 -7 5 -4
10 3 6 8 10 11 10 2 0 4 -4 4 -10z m-70 -60 c0 -5 -5 -10 -11 -10 -5 0 -7 5
-4 10 3 6 8 10 11 10 2 0 4 -4 4 -10z m-152 -51 c2 -12 -6 -18 -26 -21 -26 -4
-29 -1 -29 19 0 20 4 24 26 21 14 -2 27 -10 29 -19z m72 -20 c0 -5 -7 -9 -16
-9 -10 0 -13 -6 -9 -19 3 -12 0 -21 -10 -25 -10 -4 -14 -2 -9 5 4 8 -5 9 -32
5 -22 -3 -52 -2 -69 3 l-30 9 30 2 c89 6 100 9 113 29 14 20 32 20 32 0z m40
-4 c-27 -14 -36 -13 -25 4 3 6 16 11 28 11 21 -1 21 -1 -3 -15z m40 -35 c0
-11 -4 -20 -10 -20 -5 0 -10 9 -10 20 0 11 5 20 10 20 6 0 10 -9 10 -20z m-30
-16 c0 -8 -4 -12 -10 -9 -5 3 -10 10 -10 16 0 5 5 9 10 9 6 0 10 -7 10 -16z
m-197 -24 c-3 -11 -10 -23 -16 -27 -5 -3 -8 -2 -5 3 3 5 8 17 11 27 9 24 16
22 10 -3z m417 16 c0 -2 -9 -6 -20 -9 -11 -3 -20 -1 -20 4 0 5 9 9 20 9 11 0
20 -2 20 -4z m3043 -3 c-13 -2 -35 -2 -50 0 -16 2 -5 4 22 4 28 0 40 -2 28 -4z
m-333 -13 c0 -5 -21 -9 -47 -8 l-48 1 45 7 c25 4 46 8 48 8 1 1 2 -2 2 -8z
m97 4 c-3 -3 -12 -4 -19 -1 -8 3 -5 6 6 6 11 1 17 -2 13 -5z m110 -1 c-20 -2
-52 -2 -70 0 -17 2 0 4 38 4 39 0 53 -2 32 -4z m-314 -10 c-7 -2 -21 -2 -30 0
-10 3 -4 5 12 5 17 0 24 -2 18 -5z m430 -10 c-7 -2 -21 -2 -30 0 -10 3 -4 5
12 5 17 0 24 -2 18 -5z m-441 -101 c2 -28 0 -52 -4 -52 -5 0 -7 33 -7 73 2 76
6 68 11 -21z m562 73 c3 -8 5 -85 5 -170 0 -85 3 -160 6 -165 3 -6 2 -10 -4
-10 -5 0 -13 36 -17 81 l-7 80 -186 -5 c-117 -3 -162 -1 -121 4 36 4 121 8
189 9 l123 1 -4 95 c-3 88 2 116 16 80z m-2868 -77 c-18 -26 -22 -17 -5 14 6
11 13 17 16 15 3 -3 -2 -16 -11 -29z m2491 0 c-3 -8 -6 -5 -6 6 -1 11 2 17 5
13 3 -3 4 -12 1 -19z m-104 -109 c78 -1 74 -4 -16 -14 l-58 -7 3 -119 c2 -65
0 -119 -4 -119 -5 0 -8 54 -8 120 l0 120 -82 2 -83 2 80 5 c53 4 80 10 81 19
4 38 7 44 11 20 4 -27 6 -28 76 -29z m-3033 -29 c0 -5 -5 -10 -11 -10 -5 0 -7
5 -4 10 3 6 8 10 11 10 2 0 4 -4 4 -10z m3137 -82 c-3 -7 -5 -2 -5 12 0 14 2
19 5 13 2 -7 2 -19 0 -25z m-3147 -28 c0 -5 -4 -10 -10 -10 -5 0 -10 5 -10 10
0 6 5 10 10 10 6 0 10 -4 10 -10z m3147 -12 c-3 -8 -6 -5 -6 6 -1 11 2 17 5
13 3 -3 4 -12 1 -19z m321 13 c9 -5 -3 -10 -35 -13 -27 -3 -64 -12 -83 -21
l-33 -17 19 22 c10 13 24 26 29 30 14 10 87 10 103 -1z m-3028 -11 c0 -11 -33
-30 -52 -29 -7 0 -3 5 10 11 12 6 22 15 22 20 0 4 5 8 10 8 6 0 10 -4 10 -10z
m3099 -145 c0 -40 -2 -55 -8 -45 -6 8 -7 18 -5 22 3 5 2 17 -1 28 -5 16 -16
20 -53 22 l-47 2 48 3 47 4 1 42 c1 40 2 40 9 12 4 -16 8 -57 9 -90z m-3543
27 c-13 -12 -18 9 -10 45 l8 38 4 -39 c2 -21 1 -41 -2 -44z m404 63 c0 -8 -4
-15 -10 -15 -5 0 -7 7 -4 15 4 8 8 15 10 15 2 0 4 -7 4 -15z m-130 -10 c0 -8
-4 -15 -10 -15 -5 0 -7 7 -4 15 4 8 8 15 10 15 2 0 4 -7 4 -15z m40 1 c0 -3
-4 -8 -10 -11 -5 -3 -10 -1 -10 4 0 6 5 11 10 11 6 0 10 -2 10 -4z m-80 -16
c0 -5 -4 -10 -10 -10 -5 0 -10 5 -10 10 0 6 5 10 10 10 6 0 10 -4 10 -10z
m3350 -15 c0 -8 11 -17 25 -21 14 -3 25 -10 25 -15 0 -5 -11 -7 -25 -3 -25 6
-25 5 -25 -52 0 -31 -2 -55 -6 -52 -9 9 -11 167 -2 162 4 -3 8 -12 8 -19z
m-334 -2 c-3 -4 -22 -12 -42 -19 -29 -10 -33 -10 -24 1 6 8 24 16 38 18 15 2
29 5 31 6 2 0 1 -2 -3 -6z m-3196 -29 c0 -8 -5 -12 -10 -9 -6 4 -8 11 -5 16 9
14 15 11 15 -7z m318 -21 c-10 -2 -26 -2 -35 0 -10 3 -2 5 17 5 19 0 27 -2 18
-5z m-65 -10 c-7 -2 -19 -2 -25 0 -7 3 -2 5 12 5 14 0 19 -2 13 -5z m-128 -43
c-3 -5 -12 -10 -18 -10 -7 0 -6 4 3 10 19 12 23 12 15 0z m160 0 c3 -5 2 -10
-4 -10 -5 0 -13 5 -16 10 -3 6 -2 10 4 10 5 0 13 -4 16 -10z m65 0 c0 -5 -4
-10 -10 -10 -5 0 -10 5 -10 10 0 6 5 10 10 10 6 0 10 -4 10 -10z m10 -72 c0
-18 -2 -20 -9 -8 -6 8 -7 18 -5 22 9 14 14 9 14 -14z m-220 -53 c7 -8 28 -15
46 -15 35 0 46 -13 18 -24 -8 -3 -13 -10 -10 -15 7 -10 25 -9 44 2 7 5 12 3
12 -7 0 -18 29 -11 48 12 10 14 12 13 12 -8 0 -23 0 -23 15 -4 9 12 14 14 15
5 0 -11 5 -10 24 2 23 15 36 13 36 -5 0 -5 -4 -6 -10 -3 -5 3 -10 -1 -10 -9 0
-28 -38 -45 -73 -34 -18 6 -48 11 -68 12 -20 1 -44 10 -55 20 -17 18 -19 18
-22 3 -2 -10 -8 -15 -13 -12 -5 4 -9 1 -9 -5 0 -6 -4 -9 -9 -6 -5 3 -11 -4
-15 -16 l-5 -23 -22 23 c-22 25 -19 63 4 44 20 -17 40 34 21 52 -8 8 -14 17
-14 20 0 12 28 5 40 -9z m3360 -41 c0 -18 -5 -24 -22 -23 -13 0 -17 3 -10 6 6
2 12 16 12 29 0 14 4 22 10 19 6 -3 10 -17 10 -31z m-218 -2 c4 -4 -31 -6 -77
-4 -64 3 -89 0 -108 -13 -15 -9 -28 -12 -31 -7 -7 11 11 28 39 35 26 8 167 -1
177 -11z m-2803 -69 c9 -6 13 -14 10 -18 -12 -11 -57 39 -63 70 l-7 30 22 -35
c12 -19 29 -40 38 -47z m1136 69 c-6 -5 -23 -14 -40 -20 l-30 -12 24 20 c13
11 30 20 39 20 9 0 12 -3 7 -8z m1115 -2 c0 -5 -2 -10 -4 -10 -3 0 -8 5 -11
10 -3 6 -1 10 4 10 6 0 11 -4 11 -10z m-2678 -42 c-6 -6 -7 0 -4 19 5 21 7 23
10 9 2 -10 0 -22 -6 -28z m3161 14 c-77 -2 -92 -6 -96 -20 -3 -11 -5 -8 -6 8
l-1 25 97 -5 98 -5 -92 -3z m377 -6 c0 -2 -13 -3 -30 -2 -31 1 -40 11 -17 19
11 4 47 -9 47 -17z m-3632 -6 c10 -17 10 -20 -3 -20 -8 0 -15 2 -15 4 0 2 -3
11 -6 20 -9 23 9 20 24 -4z m2982 -22 c0 -31 -3 -39 -10 -28 -5 8 -7 23 -4 33
3 9 1 17 -5 17 -6 0 -11 5 -11 10 0 6 7 10 15 10 11 0 15 -11 15 -42z m-2910
16 c0 -8 -4 -12 -10 -9 -5 3 -10 10 -10 16 0 5 5 9 10 9 6 0 10 -7 10 -16z
m364 -19 c-4 -8 -8 -15 -10 -15 -2 0 -4 7 -4 15 0 8 4 15 10 15 5 0 7 -7 4
-15z m-299 -25 c9 0 12 -6 8 -16 -5 -14 -9 -13 -24 7 -9 13 -15 28 -11 34 4 6
8 2 10 -7 2 -10 10 -18 17 -18z m-140 11 c3 -5 1 -12 -5 -16 -5 -3 -10 1 -10
9 0 18 6 21 15 7z m461 -7 c-3 -9 -6 -18 -6 -20 0 -8 -106 -3 -120 6 -10 7 5
8 48 3 53 -5 62 -4 62 11 0 9 5 16 11 16 6 0 8 -7 5 -16z m774 6 c0 -5 -4 -10
-9 -10 -6 0 -13 5 -16 10 -3 6 1 10 9 10 9 0 16 -4 16 -10z m-962 -27 c-10 -2
-26 -2 -35 0 -10 3 -2 5 17 5 19 0 27 -2 18 -5z m922 3 c0 -11 -19 -15 -25 -6
-3 5 1 10 9 10 9 0 16 -2 16 -4z m-987 -26 c-3 -11 -9 -20 -14 -20 -11 0 -11
3 -3 24 9 23 23 20 17 -4z m3144 4 c-3 -3 -12 -4 -19 -1 -8 3 -5 6 6 6 11 1
17 -2 13 -5z m-3220 -10 c-3 -3 -12 -4 -19 -1 -8 3 -5 6 6 6 11 1 17 -2 13 -5z
m-47 -14 c-19 -13 -30 -13 -30 0 0 6 10 10 23 10 18 0 19 -2 7 -10z m180 -13
c0 -7 -9 -13 -20 -13 -20 0 -25 7 -13 19 11 12 33 8 33 -6z m-61 -19 c11 -29
3 -54 -12 -39 -13 13 -16 61 -5 61 5 0 12 -10 17 -22z m142 -5 c-12 -20 -14
-14 -5 12 4 9 9 14 11 11 3 -2 0 -13 -6 -23z m147 -13 c4 0 7 -27 7 -60 0 -53
-2 -60 -20 -60 -15 0 -16 3 -7 9 10 6 11 16 4 42 -9 29 -10 31 -11 9 -1 -20
-3 -22 -11 -10 -9 13 -11 13 -20 0 -8 -12 -10 -11 -10 8 0 12 5 22 11 22 5 0
7 5 4 10 -6 9 8 14 28 11 4 0 8 14 8 32 1 23 3 26 6 10 2 -13 7 -23 11 -23z
m2819 -40 c2 -14 15 -35 29 -48 31 -27 26 -37 -13 -27 -15 5 -31 8 -35 7 -5
-1 -8 3 -8 10 0 6 -3 9 -6 6 -3 -4 -1 -15 5 -26 8 -14 17 -19 33 -15 14 4 20
2 15 -3 -8 -9 -12 -10 -38 -13 -8 -1 -7 -7 2 -18 13 -15 12 -15 -8 -5 -12 7
-29 9 -39 5 -12 -4 -15 -3 -10 5 4 7 14 12 22 12 8 0 14 5 14 10 0 6 -8 10
-17 10 -15 0 -15 2 -4 9 10 6 12 20 8 46 -8 47 1 67 26 63 13 -2 21 -12 24
-28z m-3041 7 c17 6 17 5 5 -10 -20 -25 -51 -22 -44 4 4 13 8 16 13 10 4 -7
15 -9 26 -4z m-183 -17 c5 -4 23 -1 39 9 23 12 32 13 35 3 3 -6 9 -10 14 -6 5
3 9 0 9 -6 0 -6 12 -15 26 -20 14 -6 22 -15 19 -20 -5 -8 -12 -7 -23 2 -14 11
-15 10 -9 -5 4 -10 7 -27 7 -38 0 -13 5 -17 18 -12 14 6 15 4 4 -9 -10 -13 -9
-35 5 -119 9 -57 21 -107 26 -110 10 -7 17 -119 7 -119 -6 0 -36 141 -45 215
-2 17 -8 44 -14 60 l-9 30 -2 -30 c-1 -16 -2 -34 -1 -38 1 -4 3 -24 6 -44 2
-20 10 -40 17 -45 9 -5 6 -8 -9 -8 -23 0 -40 31 -27 51 5 8 3 9 -6 4 -9 -6
-10 -2 -4 16 6 19 9 145 5 214 -1 6 -10 16 -22 23 -19 12 -20 11 -14 -7 4 -12
2 -21 -4 -21 -6 0 -11 5 -11 11 0 5 -4 7 -10 4 -17 -11 -11 -24 15 -31 22 -5
25 -11 23 -48 l-1 -41 -4 38 c-3 29 -9 37 -24 37 -11 0 -22 6 -25 13 -3 8 -11
14 -19 14 -11 0 -12 -5 -3 -20 7 -15 7 -22 -3 -28 -20 -13 -29 -11 -29 5 0 9
-7 12 -20 9 -24 -6 -27 -23 -3 -23 15 0 14 -2 -3 -15 -14 -11 -15 -14 -3 -9
23 7 30 -7 19 -42 -4 -16 -9 -23 -9 -16 -1 7 -5 10 -11 7 -5 -3 -10 -4 -10 -1
0 2 -7 40 -15 83 -8 43 -15 81 -15 85 0 18 94 17 113 -2z m3351 -22 c4 -22 2
-37 -9 -47 -13 -14 -15 -14 -15 1 0 11 -6 15 -20 11 -20 -5 -20 -5 2 30 13 20
26 36 29 37 4 0 9 -14 13 -32z m-3129 12 c-27 -12 -43 -12 -25 0 8 5 22 9 30
9 10 0 8 -3 -5 -9z m3182 -50 c7 -10 10 -26 7 -33 -3 -9 3 -17 16 -20 18 -5
20 -9 11 -25 -10 -18 -7 -21 19 -27 17 -4 30 -11 30 -16 0 -5 -2 -9 -4 -9 -2
0 -12 -3 -20 -6 -12 -5 -15 -2 -9 11 5 15 2 17 -20 12 -32 -9 -65 2 -45 14 10
7 9 9 -4 9 -11 0 -18 -8 -18 -19 0 -11 -4 -22 -9 -25 -17 -11 -4 77 13 89 9 7
16 18 16 26 0 11 -2 11 -10 -1 -8 -12 -10 -9 -10 13 0 32 20 36 37 7z m-3234
-10 c3 -11 1 -20 -4 -20 -5 0 -9 2 -9 4 0 2 -3 11 -6 20 -3 9 -2 16 4 16 5 0
12 -9 15 -20z m452 -6 c13 4 61 -121 51 -132 -5 -5 -16 19 -33 73 -5 17 -15
29 -21 28 -7 -2 -12 2 -12 8 0 5 -4 8 -9 4 -6 -3 -8 -15 -6 -27 l5 -22 -21 20
c-17 18 -18 24 -8 47 10 23 13 24 27 11 8 -8 20 -13 27 -10z m2484 -4 c3 -24
2 -24 -16 -8 -12 11 -23 14 -33 8 -22 -13 -5 -23 40 -23 22 0 40 -3 40 -6 0
-15 -26 -39 -47 -46 -18 -5 -22 -3 -17 9 6 16 -21 24 -28 8 -1 -5 -14 -5 -28
-1 -24 7 -24 7 8 14 30 7 32 9 17 25 -24 26 -9 52 29 48 24 -2 32 -8 35 -28z
m-2719 -11 c0 -5 -4 -9 -10 -9 -5 0 -10 -4 -10 -10 0 -19 21 -10 29 12 7 20 9
18 15 -16 4 -20 10 -44 13 -52 3 -8 0 -14 -6 -14 -6 0 -11 11 -11 25 0 21 -4
24 -28 20 -26 -3 -28 -1 -28 29 1 26 5 32 19 28 9 -2 17 -8 17 -13z m-340 -1
c0 -7 -11 -13 -25 -13 -27 0 -33 10 -12 18 22 10 37 7 37 -5z m-200 -24 c0 -8
-4 -14 -10 -14 -5 0 -10 9 -10 21 0 11 5 17 10 14 6 -3 10 -13 10 -21z m3480
-10 c0 -8 -4 -14 -10 -14 -5 0 -10 9 -10 21 0 11 5 17 10 14 6 -3 10 -13 10
-21z m-3329 -16 c8 -15 8 -19 0 -14 -6 4 -11 3 -11 -2 0 -6 8 -13 17 -16 14
-6 15 -9 3 -16 -19 -12 -51 30 -43 58 6 24 17 21 34 -10z m3269 -2 c0 -9 -9
-11 -27 -8 -20 4 -23 7 -10 10 9 2 17 8 17 13 0 6 5 7 10 4 6 -3 10 -12 10
-19z m-3065 4 c3 -5 3 -15 -1 -21 -5 -8 -10 -6 -16 5 -5 9 -13 14 -19 11 -5
-4 -9 -1 -9 4 0 14 37 14 45 1z m94 -55 c9 -12 22 -20 30 -17 9 3 8 -3 -4 -22
-17 -25 -9 -36 11 -16 11 11 6 -69 -6 -85 -4 -5 -11 -32 -15 -59 -7 -48 -7
-48 -26 -28 -18 20 -17 58 2 46 5 -3 5 5 0 18 -5 13 -12 40 -16 61 -4 23 -11
37 -20 37 -22 0 -18 21 5 27 16 4 18 9 9 25 -6 11 -7 32 -3 51 8 30 8 30 12 7
2 -13 11 -34 21 -45z m271 44 c0 -6 -4 -7 -10 -4 -5 3 -10 11 -10 16 0 6 5 7
10 4 6 -3 10 -11 10 -16z m-493 -11 c-3 -8 -6 -5 -6 6 -1 11 2 17 5 13 3 -3 4
-12 1 -19z m-29 -24 c-4 -3 -12 5 -18 18 -12 22 -12 22 6 6 10 -10 15 -20 12
-24z m585 29 c-7 -2 -19 -2 -25 0 -7 3 -2 5 12 5 14 0 19 -2 13 -5z m-45 -20
c-4 -21 15 -40 34 -35 20 5 20 6 3 19 -11 7 -15 13 -9 13 20 -1 41 -26 47 -57
6 -28 4 -33 -13 -33 -11 0 -20 5 -20 11 0 5 5 7 10 4 6 -3 10 1 10 9 0 16 -31
22 -44 9 -4 -5 -24 -8 -45 -8 -32 0 -36 3 -35 24 1 27 18 39 29 22 3 -6 0 -11
-7 -11 -17 -1 21 -30 39 -30 19 0 16 12 -12 43 -24 26 -25 27 -5 27 11 0 19
-3 18 -7z m2235 -24 c6 -4 5 -13 -2 -25 -8 -14 -11 -15 -11 -4 0 8 -3 26 -5
40 -3 14 -2 18 1 10 4 -8 11 -18 17 -21z m483 4 c-7 -7 -26 7 -26 19 0 6 6 6
15 -2 9 -7 13 -15 11 -17z m-3092 -4 c-6 -11 -24 -2 -24 11 0 5 7 7 15 4 8 -4
12 -10 9 -15z m2946 6 c6 -8 10 -20 8 -26 -2 -6 -12 0 -21 15 -18 27 -8 37 13
11z m-3253 -42 c-3 -10 -5 -2 -5 17 0 19 2 27 5 18 2 -10 2 -26 0 -35z m3503
37 c0 -5 -7 -10 -15 -10 -8 0 -15 5 -15 10 0 6 7 10 15 10 8 0 15 -4 15 -10z
m120 6 c0 -2 -7 -6 -15 -10 -8 -3 -15 -1 -15 4 0 6 7 10 15 10 8 0 15 -2 15
-4z m-3456 -21 c-4 -8 -8 -15 -10 -15 -2 0 -4 7 -4 15 0 8 4 15 10 15 5 0 7
-7 4 -15z m356 -24 c0 -22 -4 -43 -10 -46 -6 -4 -10 12 -10 39 0 25 5 46 10
46 6 0 10 -18 10 -39z m79 35 c-2 -1 -20 -8 -39 -14 -32 -11 -33 -10 -16 3 16
12 69 23 55 11z m187 -23 c-4 -9 -1 -20 6 -25 10 -6 8 -8 -4 -8 -18 0 -25 30
-11 43 11 12 15 8 9 -10z m2067 -77 c1 -30 5 -52 8 -50 3 2 6 -3 6 -11 0 -8
-4 -12 -9 -9 -4 3 -11 -2 -14 -11 -4 -10 -9 -12 -13 -6 -4 5 -12 7 -18 3 -16
-10 -28 -62 -15 -62 6 0 13 12 15 28 3 21 4 18 6 -12 l1 -38 -32 7 c-18 4 -41
7 -52 7 -17 -1 -18 5 -12 98 7 89 6 99 -11 109 -11 6 -13 11 -5 11 21 0 70
-55 77 -86 11 -47 14 -54 24 -54 7 0 8 26 5 70 -3 39 -3 78 0 87 12 30 37 -23
39 -81z m-2535 -7 c51 -10 53 -23 2 -15 -25 4 -48 10 -51 14 -3 4 -3 27 0 52
l5 45 6 -45 c5 -41 8 -45 38 -51z m169 69 c-3 -8 -6 -5 -6 6 -1 11 2 17 5 13
3 -3 4 -12 1 -19z m-365 -20 c-9 -9 -12 -7 -12 12 0 19 3 21 12 12 9 -9 9 -15
0 -24z m47 -48 c0 -8 -7 -1 -14 15 -8 17 -14 37 -14 45 0 8 7 2 14 -15 8 -16
14 -37 14 -45z m2721 66 c0 -3 -4 -8 -10 -11 -5 -3 -10 -1 -10 4 0 6 5 11 10
11 6 0 10 -2 10 -4z m-2827 -40 c-3 -18 0 -44 6 -57 12 -23 11 -23 -3 -5 -21
26 -21 96 0 96 2 0 0 -15 -3 -34z m1863 22 c4 -6 -1 -17 -12 -25 -16 -12 -19
-11 -25 4 -4 10 -5 21 -2 26 6 11 31 8 39 -5z m604 5 c0 -5 -4 -15 -10 -23
-11 -18 -25 -7 -17 15 6 15 27 21 27 8z m70 -13 c8 -16 7 -26 -5 -42 -15 -22
-15 -21 -15 20 0 47 4 51 20 22z m331 0 c10 0 19 -4 19 -10 0 -15 -47 -12 -53
4 -3 8 -3 17 1 21 4 3 8 1 10 -4 2 -6 12 -11 23 -11z m-2831 -12 c0 -13 3 -41
6 -63 4 -28 2 -35 -4 -25 -16 24 -26 110 -13 110 6 0 11 -10 11 -22z m660 -25
c0 -25 -1 -26 -16 -11 -9 9 -13 21 -10 27 13 20 26 11 26 -16z m2494 13 c9 3
16 1 16 -5 0 -6 -6 -11 -14 -11 -8 0 -17 -7 -20 -16 -9 -22 -26 -7 -26 23 0
20 3 23 14 14 7 -6 21 -9 30 -5z m256 4 c0 -5 -7 -10 -15 -10 -8 0 -15 5 -15
10 0 6 7 10 15 10 8 0 15 -4 15 -10z m-3520 -26 c0 -17 6 -28 20 -31 30 -8 24
-23 -10 -23 -16 0 -30 5 -30 10 0 6 -6 10 -13 10 -9 0 -12 10 -9 30 6 40 42
43 42 4z m521 -174 c2 -19 -2 -44 -9 -55 -9 -16 -11 8 -10 115 1 130 1 132 9
55 4 -44 9 -96 10 -115z m2014 180 c3 -5 -1 -10 -9 -10 -9 0 -16 5 -16 10 0 6
4 10 9 10 6 0 13 -4 16 -10z m405 6 c0 -3 -4 -8 -10 -11 -5 -3 -10 -1 -10 4 0
6 5 11 10 11 6 0 10 -2 10 -4z m-2798 -50 c-3 -5 -9 -1 -13 10 -12 31 -10 39
5 19 8 -11 12 -24 8 -29z m691 13 c34 -1 30 -3 -17 -14 -26 -6 -28 -9 -23 -44
2 -22 -1 -44 -8 -54 -7 -9 -11 -29 -8 -45 3 -25 3 -26 -6 -4 -6 12 -8 28 -5
36 3 8 1 17 -4 20 -13 8 -54 -34 -48 -49 3 -9 -2 -11 -15 -8 -15 4 -17 9 -9
18 8 10 7 15 -7 18 -14 4 -12 5 5 6 15 1 26 9 29 20 3 11 12 22 20 25 9 4 12
13 8 26 -4 11 -2 20 4 20 6 0 11 -6 12 -12 0 -7 5 -2 11 12 11 23 12 28 18 48
1 4 4 1 7 -5 2 -7 19 -13 36 -14z m2073 1 c12 0 13 -8 4 -50 -1 -9 -17 24 -24
50 -3 14 -3 19 0 13 3 -7 12 -13 20 -13z m304 4 c0 -8 -4 -12 -10 -9 -5 3 -10
10 -10 16 0 5 5 9 10 9 6 0 10 -7 10 -16z m-2968 -19 c7 -36 -7 -40 -27 -9 -9
15 -12 24 -7 20 6 -3 13 -2 17 4 9 15 12 13 17 -15z m-315 -7 c-3 -8 -6 -5 -6
6 -1 11 2 17 5 13 3 -3 4 -12 1 -19z m769 15 c-45 -5 -93 -35 -106 -67 -6 -13
-9 -15 -9 -6 -1 9 12 30 28 48 26 28 36 32 78 30 46 -1 47 -1 9 -5z m2401 -15
c-3 -8 -6 -5 -6 6 -1 11 2 17 5 13 3 -3 4 -12 1 -19z m178 2 c3 -5 2 -10 -4
-10 -5 0 -13 5 -16 10 -3 6 -2 10 4 10 5 0 13 -4 16 -10z m-3284 -20 c23 0 25
-15 4 -24 -8 -3 -15 -12 -15 -21 0 -8 -8 -15 -17 -15 -13 0 -14 3 -5 12 15 15
16 32 2 23 -12 -7 -13 6 -3 31 4 11 8 13 11 6 2 -7 12 -12 23 -12z m349 10 c0
-5 -2 -10 -4 -10 -3 0 -8 5 -11 10 -3 6 -1 10 4 10 6 0 11 -4 11 -10z m2247
-22 c-3 -7 -5 -2 -5 12 0 14 2 19 5 13 2 -7 2 -19 0 -25z m491 9 c2 -12 -3
-17 -17 -17 -12 0 -21 6 -21 13 0 31 32 34 38 4z m166 -2 c3 -8 1 -15 -4 -15
-6 0 -10 7 -10 15 0 8 2 15 4 15 2 0 6 -7 10 -15z m-2550 -15 c4 -4 6 -14 4
-21 -3 -8 -11 -5 -25 10 -12 13 -26 20 -32 16 -6 -3 -11 -1 -11 5 0 13 48 5
64 -10z m2266 11 c0 -6 -4 -13 -10 -16 -5 -3 -10 1 -10 9 0 9 5 16 10 16 6 0
10 -4 10 -9z m325 -74 c0 -50 -3 -67 -14 -67 -9 0 -11 7 -8 21 4 15 0 23 -14
26 -10 3 -19 10 -19 15 0 6 9 8 20 5 18 -5 19 -2 13 35 -5 32 -3 40 8 36 10
-3 14 -23 14 -71z m-3118 21 c-3 -7 -5 -2 -5 12 0 14 2 19 5 13 2 -7 2 -19 0
-25z m3083 22 c0 -5 -9 -10 -19 -10 -11 0 -23 5 -26 10 -4 6 5 10 19 10 14 0
26 -4 26 -10z m-180 -10 c0 -5 -9 -10 -20 -10 -11 0 -20 -5 -20 -12 0 -6 -2
-9 -5 -6 -3 3 -3 13 1 22 7 17 44 23 44 6z m-3013 -6 c-3 -3 -12 -4 -19 -1 -8
3 -5 6 6 6 11 1 17 -2 13 -5z m924 -25 c2 -14 1 -58 -1 -71 -1 -10 -23 57 -30
89 0 1 7 0 15 -3 8 -4 15 -10 16 -15z m931 -1 c-7 -7 -12 -24 -12 -39 0 -24
-4 -27 -47 -33 -63 -8 -74 6 -17 23 32 10 49 22 60 43 9 16 18 27 22 24 3 -4
0 -12 -6 -18z m668 12 c0 -5 -7 -10 -15 -10 -8 0 -15 -3 -15 -6 0 -10 28 -34
40 -34 6 0 9 -4 6 -9 -4 -5 -14 -8 -24 -6 -9 2 -20 4 -24 4 -5 1 -8 8 -8 16 0
8 -4 15 -10 15 -5 0 -10 5 -10 10 0 6 7 10 15 10 8 0 15 5 15 10 0 6 7 10 15
10 8 0 15 -4 15 -10z m-2620 -16 c0 -12 -4 -14 -12 -7 -7 6 -20 13 -28 16 -9
3 -3 6 13 6 19 1 27 -4 27 -15z m53 -22 c18 -30 18 -31 -1 -29 -13 1 -18 6
-14 15 3 8 -2 19 -11 24 -10 5 -17 14 -17 19 0 19 25 3 43 -29z m315 -2 c-3
-38 -2 -40 27 -41 22 -1 24 -3 8 -6 -14 -3 -20 -9 -16 -19 6 -17 29 -18 37 -1
3 6 3 -1 0 -18 -7 -38 -13 -43 -24 -25 -7 10 -10 11 -10 3 0 -7 -5 -13 -11
-13 -6 0 -8 7 -5 17 4 10 -1 23 -14 35 -22 21 -25 34 -10 43 6 3 10 19 10 36
0 16 3 29 6 29 3 0 4 -18 2 -40z m496 -5 c5 -29 4 -36 -3 -25 -6 8 -11 28 -11
44 0 39 6 31 14 -19z m-181 28 c-7 -2 -21 -2 -30 0 -10 3 -4 5 12 5 17 0 24
-2 18 -5z m1380 -8 c1 -6 -8 -14 -20 -20 -13 -5 -23 -13 -23 -17 0 -3 10 -9
23 -11 20 -4 20 -4 -3 -6 -15 0 -31 4 -38 11 -10 10 -6 17 15 35 27 23 43 26
46 8z m1074 9 c-3 -3 -12 -4 -19 -1 -8 3 -5 6 6 6 11 1 17 -2 13 -5z m-2169
-39 c13 -13 22 -31 20 -39 -2 -10 -13 -1 -31 25 -31 43 -25 52 11 14z m92 5
c0 -5 -4 -10 -10 -10 -5 0 -10 5 -10 10 0 6 5 10 10 10 6 0 10 -4 10 -10z
m1800 -20 c0 -13 -7 -20 -20 -20 -25 0 -26 16 -2 29 23 14 22 14 22 -9z
m-2910 6 c0 -3 -4 -8 -10 -11 -5 -3 -10 -1 -10 4 0 6 5 11 10 11 6 0 10 -2 10
-4z m3173 -3 c-7 -2 -19 -2 -25 0 -7 3 -2 5 12 5 14 0 19 -2 13 -5z m-2926
-25 c-3 -8 -6 -5 -6 6 -1 11 2 17 5 13 3 -3 4 -12 1 -19z m883 -30 c-1 -20 -3
-18 -15 11 -19 42 -19 46 0 27 8 -8 15 -25 15 -38z m1020 37 c0 -8 -7 -15 -15
-15 -13 0 -14 3 -3 15 16 18 18 18 18 0z m915 5 c-3 -5 -11 -10 -16 -10 -6 0
-7 5 -4 10 3 6 11 10 16 10 6 0 7 -4 4 -10z m-3055 -10 c0 -5 -5 -10 -11 -10
-5 0 -7 5 -4 10 3 6 8 10 11 10 2 0 4 -4 4 -10z m120 -10 c0 -5 -7 -10 -15
-10 -8 0 -15 5 -15 10 0 6 7 10 15 10 8 0 15 -4 15 -10z m630 -5 c0 -8 -2 -15
-4 -15 -2 0 -6 7 -10 15 -3 8 -1 15 4 15 6 0 10 -7 10 -15z m2890 -6 c0 -5 -7
-9 -15 -9 -15 0 -20 12 -9 23 8 8 24 -1 24 -14z m-2759 -22 c-16 -16 -25 -1
-10 16 8 8 16 11 18 5 2 -5 -2 -15 -8 -21z m337 -133 c-9 -9 -68 96 -73 131
-5 35 -1 29 35 -44 23 -46 40 -85 38 -87z m642 151 c0 -8 -7 -15 -15 -15 -8 0
-15 7 -15 15 0 8 7 15 15 15 8 0 15 -7 15 -15z m880 11 c0 -2 -13 -9 -30 -15
-16 -5 -30 -6 -30 -1 0 5 8 11 18 13 24 7 42 8 42 3z m346 -7 c7 -12 -12 -29
-33 -29 -7 0 -13 9 -13 20 0 22 34 28 46 9z m-2856 -9 c0 -5 -4 -10 -10 -10
-5 0 -10 5 -10 10 0 6 5 10 10 10 6 0 10 -4 10 -10z m510 -49 c0 -45 -6 -37
-14 19 -4 31 -3 40 4 30 5 -8 10 -30 10 -49z m357 -7 c-3 -3 -8 4 -12 15 -3
12 -11 21 -16 21 -5 0 -9 8 -9 18 0 11 7 6 21 -16 12 -18 19 -35 16 -38z m818
56 c3 -5 -1 -10 -10 -10 -9 0 -13 5 -10 10 3 6 8 10 10 10 2 0 7 -4 10 -10z
m720 0 c-3 -5 -10 -10 -16 -10 -5 0 -9 5 -9 10 0 6 7 10 16 10 8 0 12 -4 9
-10z m255 -31 c0 -22 -4 -38 -8 -35 -8 5 -4 76 4 76 2 0 4 -18 4 -41z m240 31
c0 -5 -5 -10 -11 -10 -5 0 -7 5 -4 10 3 6 8 10 11 10 2 0 4 -4 4 -10z m-3071
-54 c-9 -8 -10 -7 -5 7 3 10 7 26 7 35 1 9 4 6 6 -7 3 -13 -1 -28 -8 -35z
m517 18 c-4 -14 -9 -24 -12 -21 -3 2 -2 17 2 31 3 15 9 25 11 22 3 -3 2 -17
-1 -32z m2589 26 c-3 -5 5 -19 19 -31 14 -12 28 -36 32 -53 3 -17 14 -40 23
-51 31 -37 62 -103 51 -110 -13 -8 -62 43 -91 94 -17 30 -26 38 -35 30 -8 -7
-14 -7 -19 1 -3 5 -13 10 -22 10 -11 0 -14 -7 -11 -25 4 -19 1 -25 -13 -25
-31 0 -67 18 -79 40 -14 26 -6 37 14 21 15 -12 18 -10 29 22 5 14 3 16 -10 9
-16 -10 -53 -5 -53 7 1 15 48 38 88 44 35 4 42 3 38 -9 -3 -8 0 -14 6 -14 6 0
20 -7 30 -17 17 -15 18 -15 18 1 0 9 -7 19 -15 22 -17 7 -21 44 -4 44 5 0 7
-4 4 -10z m-3056 -22 c1 6 6 12 11 12 6 0 10 -6 8 -12 -3 -13 3 -18 22 -18 5
0 7 7 4 15 -4 8 -1 15 6 15 8 0 10 -9 6 -24 -4 -15 -1 -26 7 -29 9 -3 9 -9 0
-26 -7 -11 -13 -48 -13 -81 l0 -60 -40 0 c-36 0 -40 3 -40 24 0 17 -7 26 -25
30 -19 5 -25 13 -24 34 0 26 1 26 9 5 14 -35 26 -27 22 12 -3 29 -7 33 -18 24
-11 -9 -14 -8 -14 5 0 9 6 16 14 16 8 0 17 6 19 13 3 6 6 -1 6 -17 1 -23 4
-27 13 -18 6 6 11 33 10 59 -1 36 1 43 8 28 5 -11 9 -14 9 -7z m2621 12 c0 -5
-10 -10 -22 -10 -19 0 -20 2 -8 10 19 13 30 13 30 0z m-2699 -27 c-8 -15 -10
-15 -11 -2 0 17 10 32 18 25 2 -3 -1 -13 -7 -23z m2729 5 c0 -28 -15 -36 -53
-29 -43 7 -46 23 -4 27 15 1 31 5 34 8 11 10 23 7 23 -6z m-2776 -40 c-3 -4 0
-8 5 -8 15 0 14 -16 -5 -57 -12 -25 -19 -31 -25 -21 -5 7 -8 20 -8 28 0 10 2
11 6 3 2 -7 8 -13 13 -13 10 0 10 49 0 55 -5 3 -6 14 -3 26 4 15 8 17 14 8 4
-7 5 -17 3 -21z m456 15 c0 12 8 17 28 16 15 0 22 -3 15 -5 -8 -4 -9 -13 -4
-27 4 -12 11 -35 15 -51 6 -25 5 -28 -7 -18 -8 7 -18 8 -22 4 -5 -4 -5 1 -2
11 5 13 0 21 -18 29 -14 6 -25 15 -25 19 0 4 -3 16 -6 26 -5 16 -4 16 10 -1
14 -17 16 -18 16 -3z m3250 2 c10 -12 10 -19 2 -27 -9 -9 -12 -9 -12 1 0 8 -6
11 -15 7 -17 -6 -18 -4 -9 18 8 20 18 20 34 1z m-3133 -27 c-3 -8 -6 -5 -6 6
-1 11 2 17 5 13 3 -3 4 -12 1 -19z m567 -41 c15 -33 49 -78 95 -123 59 -59 73
-78 77 -110 l5 -39 -19 44 c-25 58 -73 101 -113 101 -16 0 -58 13 -92 29 -34
15 -78 34 -98 40 -20 6 -53 20 -74 31 -47 24 -67 25 -104 5 -16 -8 -62 -20
-103 -26 -72 -12 -128 -32 -128 -47 0 -4 -14 -13 -31 -19 -26 -10 -34 -9 -46
2 -8 8 -11 15 -6 16 4 0 -1 4 -12 9 -11 4 -31 6 -45 4 l-25 -4 25 11 c24 11
33 13 73 17 10 1 17 10 17 22 0 11 4 20 9 20 5 0 7 -10 4 -21 -6 -21 -4 -22
48 -15 30 5 81 12 114 16 33 4 74 15 90 24 54 29 59 28 308 -80 32 -14 62 -24
67 -22 5 2 -11 38 -36 81 -24 44 -44 83 -44 89 0 21 22 -7 44 -55z m1586 37
c0 -6 -26 -34 -32 -34 -2 0 -4 9 -5 20 -1 14 4 20 18 20 10 0 19 -3 19 -6z
m929 -59 l0 -20 -9 20 c-5 11 -9 29 -9 40 l0 20 9 -20 c5 -11 9 -29 9 -40z
m-752 -32 c0 -24 -4 -43 -9 -43 -4 0 -8 6 -8 13 0 8 -9 22 -20 32 -19 17 -27
55 -14 68 4 3 17 -2 29 -11 18 -13 23 -27 22 -59z m-2990 45 c-3 -8 -6 -5 -6
6 -1 11 2 17 5 13 3 -3 4 -12 1 -19z m29 -5 c-10 -10 -19 5 -10 18 6 11 8 11
12 0 2 -7 1 -15 -2 -18z m534 -13 c10 0 22 -4 25 -10 8 -13 -11 -13 -36 0 -10
6 -18 18 -18 28 1 16 2 16 6 0 2 -10 13 -18 23 -18z m2530 10 c0 -5 -4 -10
-10 -10 -5 0 -10 5 -10 10 0 6 5 10 10 10 6 0 10 -4 10 -10z m75 -30 c3 -5 -1
-10 -9 -10 -18 0 -36 -30 -36 -59 0 -12 -4 -21 -9 -21 -5 0 -8 19 -6 42 2 30
8 44 21 49 27 11 32 10 39 -1z m-3125 -41 c0 -7 -6 -4 -15 7 -19 25 -19 40 0
20 8 -8 15 -20 15 -27z m47 9 c-3 -7 -5 -2 -5 12 0 14 2 19 5 13 2 -7 2 -19 0
-25z m3182 10 c12 -16 11 -18 -7 -18 -15 0 -19 5 -15 20 3 12 6 19 7 18 1 -2
8 -11 15 -20z m508 0 c-3 -8 -6 -5 -6 6 -1 11 2 17 5 13 3 -3 4 -12 1 -19z
m-3706 -15 c0 -16 2 -62 4 -103 3 -51 1 -70 -6 -60 -5 8 -9 41 -7 72 1 32 -2
61 -5 65 -11 10 -8 53 3 53 6 0 10 -12 11 -27z m229 11 c0 -8 -4 -12 -10 -9
-5 3 -10 10 -10 16 0 5 5 9 10 9 6 0 10 -7 10 -16z m3150 6 c0 -5 -5 -10 -11
-10 -5 0 -7 5 -4 10 3 6 8 10 11 10 2 0 4 -4 4 -10z m-365 -30 c3 -5 1 -10 -4
-10 -6 0 -11 5 -11 10 0 6 2 10 4 10 3 0 8 -4 11 -10z m-2791 -35 c6 -17 -14
-18 -54 -4 -22 8 -21 8 8 4 20 -3 31 -1 27 5 -3 6 -2 10 3 10 6 0 12 -7 16
-15z m3036 5 c0 -5 10 -9 22 -7 21 2 34 -22 42 -80 3 -21 -1 -23 -45 -23 -28
0 -49 5 -49 11 0 6 9 8 20 4 24 -7 25 2 5 29 -8 11 -15 30 -15 42 0 13 -7 24
-17 27 -11 3 -7 5 10 6 15 0 27 -3 27 -9z m-3356 -24 c-3 -9 -10 -16 -15 -16
-5 0 -7 -11 -4 -25 3 -14 7 -36 10 -49 4 -19 0 -25 -21 -30 -34 -9 -37 -5 -28
38 5 32 8 35 22 24 13 -11 14 -10 4 9 -10 18 -8 25 10 47 25 27 32 28 22 2z
m3106 14 c0 -5 -4 -10 -10 -10 -5 0 -10 5 -10 10 0 6 5 10 10 10 6 0 10 -4 10
-10z m340 0 c0 -5 -4 -10 -9 -10 -6 0 -13 5 -16 10 -3 6 1 10 9 10 9 0 16 -4
16 -10z m-3293 -32 c-3 -7 -5 -2 -5 12 0 14 2 19 5 13 2 -7 2 -19 0 -25z m338
22 c3 -5 -1 -10 -9 -10 -9 0 -16 5 -16 10 0 6 4 10 9 10 6 0 13 -4 16 -10z
m-298 -36 c-6 -38 0 -64 15 -64 5 0 6 10 3 23 -7 22 -7 22 17 -3 l25 -25 -40
-3 c-21 -2 -40 -2 -42 0 -5 5 17 108 23 108 2 0 2 -16 -1 -36z m193 16 c0 -5
-7 -10 -16 -10 -8 0 -12 5 -9 10 3 6 10 10 16 10 5 0 9 -4 9 -10z m2776 -16
c-3 -9 -6 -23 -7 -32 0 -14 -2 -13 -9 3 -13 31 -11 45 6 45 11 0 14 -5 10 -16z
m294 -30 c0 -8 -4 -12 -10 -9 -5 3 -10 10 -10 16 0 5 5 9 10 9 6 0 10 -7 10
-16z m-3420 -20 c0 -8 -4 -12 -10 -9 -5 3 -10 13 -10 21 0 8 5 12 10 9 6 -3
10 -13 10 -21z m3120 -40 c0 -3 -7 -1 -15 6 -8 7 -15 17 -15 22 0 5 7 3 15 -6
8 -8 15 -18 15 -22z m-2305 6 c8 -13 -15 -13 -35 0 -12 8 -11 10 7 10 12 0 25
-4 28 -10z m-243 -40 c-2 -17 -9 -33 -15 -37 -6 -4 -8 2 -4 18 4 13 7 30 7 37
0 6 4 12 8 12 5 0 7 -14 4 -30z m298 15 c11 -13 10 -14 -4 -9 -9 3 -16 10 -16
15 0 13 6 11 20 -6z m2834 -96 c10 -37 -11 -48 -24 -13 -6 16 -8 46 -3 73 l7
46 7 -40 c3 -22 9 -52 13 -66z m-3084 81 c0 -5 -2 -10 -4 -10 -3 0 -8 5 -11
10 -3 6 -1 10 4 10 6 0 11 -4 11 -10z m400 -20 c12 -8 9 -10 -12 -10 -16 0
-28 5 -28 10 0 13 20 13 40 0z m2235 0 c19 -8 19 -9 -2 -9 -12 -1 -25 4 -28 9
-7 12 2 12 30 0z m-2630 -99 c-3 -6 -14 -11 -23 -11 -13 0 -13 2 4 14 21 15
30 14 19 -3z m2795 -3 c0 -6 -7 -7 -16 -4 -9 3 -18 6 -20 6 -3 0 -3 4 1 10 7
11 35 2 35 -12z m-2912 5 c-10 -2 -26 -2 -35 0 -10 3 -2 5 17 5 19 0 27 -2 18
-5z m2951 -17 c10 -12 8 -13 -8 -9 -12 3 -18 9 -15 14 7 12 10 11 23 -5z
m-3183 -61 c0 -21 -4 -31 -9 -26 -8 8 -2 61 6 61 2 0 3 -16 3 -35z m3229 25
c3 -5 1 -10 -4 -10 -6 0 -11 5 -11 10 0 6 2 10 4 10 3 0 8 -4 11 -10z"/>
<path d="M3350 3640 c0 -5 6 -10 14 -10 8 0 18 5 21 10 3 6 -3 10 -14 10 -12
0 -21 -4 -21 -10z"/>
<path d="M695 3610 c-3 -5 -1 -10 4 -10 6 0 11 5 11 10 0 6 -2 10 -4 10 -3 0
-8 -4 -11 -10z"/>
<path d="M3260 3280 c0 -5 6 -10 14 -10 8 0 18 5 21 10 3 6 -3 10 -14 10 -12
0 -21 -4 -21 -10z"/>
<path d="M3162 2643 c-2 -21 -8 -41 -15 -45 -6 -4 -8 -10 -5 -14 14 -13 36 22
31 49 -3 17 -1 27 6 27 7 0 9 5 6 10 -12 20 -21 9 -23 -27z"/>
<path d="M3295 2640 c-3 -5 1 -10 9 -10 9 0 16 5 16 10 0 6 -4 10 -9 10 -6 0
-13 -4 -16 -10z"/>
<path d="M3201 2624 c0 -11 3 -14 6 -6 3 7 2 16 -1 19 -3 4 -6 -2 -5 -13z"/>
<path d="M3221 2604 c0 -11 3 -14 6 -6 3 7 2 16 -1 19 -3 4 -6 -2 -5 -13z"/>
<path d="M3337 2603 c-11 -10 -8 -20 8 -27 10 -4 15 1 15 14 0 20 -11 26 -23
13z"/>
<path d="M3188 2576 c-10 -7 -18 -17 -18 -22 0 -4 5 -3 12 4 19 19 30 14 23
-9 -6 -18 -4 -20 17 -14 30 10 30 9 22 29 -4 9 -12 15 -20 12 -7 -3 -14 -1
-16 4 -2 5 -11 3 -20 -4z"/>
<path d="M3320 2515 c-14 -16 -10 -18 14 -9 9 3 16 10 16 15 0 14 -16 11 -30
-6z"/>
<path d="M3363 2511 c0 -11 5 -17 9 -15 11 7 10 34 -1 34 -6 0 -9 -9 -8 -19z"/>
<path d="M565 1520 c3 -5 8 -10 11 -10 2 0 4 5 4 10 0 6 -5 10 -11 10 -5 0 -7
-4 -4 -10z"/>
<path d="M351 1234 c0 -11 3 -14 6 -6 3 7 2 16 -1 19 -3 4 -6 -2 -5 -13z"/>
<path d="M370 1230 c0 -24 15 -27 24 -4 9 22 8 24 -9 24 -8 0 -15 -9 -15 -20z"/>
<path d="M543 1155 c0 -22 2 -30 4 -17 2 12 2 30 0 40 -3 9 -5 -1 -4 -23z"/>
<path d="M3805 3680 c-3 -5 -1 -18 4 -27 9 -16 10 -14 11 10 0 28 -5 34 -15
17z"/>
<path d="M3874 3674 c3 -9 6 -20 6 -25 0 -4 8 -5 17 -2 12 5 15 2 10 -10 -3
-9 -2 -17 3 -17 6 0 10 -9 10 -20 0 -11 5 -20 11 -20 6 0 9 6 6 14 -3 8 -1 16
5 18 7 3 5 13 -6 30 -10 16 -23 25 -32 21 -8 -3 -14 1 -14 11 0 9 -5 16 -11
16 -6 0 -8 -7 -5 -16z"/>
<path d="M3635 3474 c-14 -22 -15 -28 -4 -36 11 -7 11 -11 1 -15 -6 -2 -10 -9
-6 -14 3 -5 12 -2 20 6 9 8 13 19 9 25 -3 6 1 7 9 4 12 -4 16 0 16 16 0 16 -4
20 -16 16 -12 -4 -15 -2 -10 9 8 23 0 18 -19 -11z"/>
<path d="M422 3317 c-9 -11 -10 -17 -2 -22 15 -9 23 -1 18 21 -3 15 -4 16 -16
1z"/>
<path d="M450 3300 c0 -35 6 -37 40 -9 24 20 24 20 3 14 -17 -5 -23 -2 -23 9
0 9 -4 16 -10 16 -5 0 -10 -13 -10 -30z"/>
<path d="M3823 3114 c9 -3 15 -10 12 -15 -4 -5 -2 -9 4 -9 6 0 8 -6 5 -14 -3
-7 3 -16 12 -20 24 -9 28 -1 12 31 -9 18 -22 29 -38 30 -15 1 -18 0 -7 -3z"/>
<path d="M3955 3099 c-4 -6 -5 -13 -2 -16 7 -7 27 6 27 18 0 12 -17 12 -25 -2z"/>
<path d="M3990 3075 c0 -9 6 -12 15 -9 8 4 15 10 15 15 0 5 -7 9 -15 9 -8 0
-15 -7 -15 -15z"/>
<path d="M3740 3060 c13 -8 13 -13 2 -31 -11 -17 -11 -20 -1 -17 7 2 16 16 20
31 6 23 4 27 -14 27 -18 0 -19 -2 -7 -10z"/>
<path d="M3610 3028 c-12 -22 -12 -22 6 -6 10 10 15 20 12 24 -4 3 -12 -5 -18
-18z"/>
<path d="M3803 3029 c14 -8 22 -8 30 0 8 8 3 11 -18 11 -26 -1 -28 -2 -12 -11z"/>
<path d="M69 2908 c0 -2 -2 -16 -4 -31 -3 -24 -1 -26 11 -16 10 8 14 8 14 0 0
-6 9 -11 20 -11 11 0 20 -4 20 -10 0 -5 9 -10 20 -10 11 0 20 5 20 11 0 5 -6
7 -12 4 -7 -4 -5 0 5 8 17 14 16 15 -4 20 -14 4 -20 11 -16 21 5 13 -1 16 -33
16 -22 0 -40 -1 -41 -2z"/>
<path d="M187 2843 c-4 -3 -7 -11 -7 -17 0 -6 5 -5 12 2 6 6 9 14 7 17 -3 3
-9 2 -12 -2z"/>
<path d="M40 2601 c0 -5 5 -13 10 -16 6 -3 10 -2 10 4 0 5 -4 13 -10 16 -5 3
-10 2 -10 -4z"/>
<path d="M454 2539 c-7 -12 12 -29 34 -29 10 0 10 5 2 20 -12 22 -25 26 -36 9z"/>
<path d="M2085 2451 c-22 -4 -46 -10 -53 -15 -7 -4 -27 -9 -45 -11 -43 -4 -61
-9 -67 -17 -3 -4 -15 -9 -25 -11 -11 -2 -35 -18 -54 -35 -31 -30 -32 -34 -18
-50 8 -9 17 -26 19 -36 1 -11 14 -32 29 -48 14 -15 31 -44 38 -64 24 -67 89
-152 144 -188 98 -65 255 -103 319 -77 13 5 35 12 51 15 15 4 27 13 27 21 0 9
10 15 25 15 18 0 25 5 25 18 0 13 13 23 43 32 23 8 47 17 52 21 6 4 21 7 35 7
14 0 42 7 63 15 32 14 37 20 37 48 0 18 -6 40 -13 48 -23 28 -33 65 -27 101
10 69 -52 125 -168 151 -29 7 -60 20 -70 30 -14 13 -45 18 -128 23 -60 3 -129
8 -154 10 -25 2 -63 1 -85 -3z m320 -261 c3 -5 -3 -10 -14 -10 -11 0 -23 5
-26 10 -3 6 3 10 14 10 11 0 23 -4 26 -10z"/>
<path d="M1586 1824 c-4 -15 -2 -32 3 -37 6 -6 11 -20 11 -31 0 -14 3 -17 11
-9 13 13 8 95 -7 100 -7 2 -15 -8 -18 -23z"/>
<path d="M2917 1790 c-7 -59 6 -105 28 -97 17 7 29 -25 20 -53 -5 -16 -2 -20
17 -20 16 0 33 15 56 48 36 54 40 81 16 117 -13 20 -25 25 -57 25 -22 0 -48 7
-57 15 -16 14 -18 12 -23 -35z"/>
<path d="M1615 1690 c3 -5 8 -10 11 -10 2 0 4 5 4 10 0 6 -5 10 -11 10 -5 0
-7 -4 -4 -10z"/>
<path d="M2908 1593 c-19 -5 -25 -23 -9 -23 17 0 41 12 41 21 0 9 -4 10 -32 2z"/>
<path d="M3058 1589 c-10 -5 -18 -17 -18 -25 0 -19 16 -10 30 17 12 22 11 22
-12 8z"/>
<path d="M2218 1568 c-25 -9 -39 -28 -20 -28 4 0 23 -14 42 -31 43 -38 91 -69
107 -69 17 0 123 -108 123 -125 0 -17 4 -18 28 -6 9 4 32 13 50 19 28 9 34 8
45 -9 19 -30 25 -23 25 34 0 53 -17 87 -45 87 -8 0 -12 4 -9 9 6 10 -73 43
-144 61 -25 7 -50 16 -57 22 -7 5 -22 7 -33 3 -15 -5 -29 -1 -43 13 -32 28
-39 30 -69 20z"/>
<path d="M4005 410 c3 -5 8 -10 11 -10 2 0 4 5 4 10 0 6 -5 10 -11 10 -5 0 -7
-4 -4 -10z"/>
</g>
</svg>
